<svg width="24" height="24" viewBox="0 0 24 24" fill="none" xmlns="http://www.w3.org/2000/svg">
<circle cx="12" cy="12" r="12" fill="#FEE500"/>
<path d="M12.0346 5.7915C8.30113 5.7915 5.29028 8.20016 5.29028 11.1243C5.29028 13.0223 6.5428 14.6843 8.42156 15.6333L7.78567 18.0083C7.77368 18.0439 7.77184 18.0821 7.78035 18.1187C7.78886 18.1553 7.80738 18.1888 7.83385 18.2154C7.87244 18.2495 7.92209 18.2683 7.97355 18.2684C8.01621 18.265 8.05669 18.2481 8.08917 18.2202L10.8254 16.3752C11.2293 16.431 11.6365 16.4599 12.0442 16.4619C15.7728 16.4619 18.7885 14.0532 18.7885 11.1243C18.7885 8.19534 15.7632 5.7915 12.0346 5.7915Z" fill="#392020"/>
<path d="M7.65068 10.2813H6.91362C6.82227 10.2839 6.73205 10.2605 6.65349 10.2138C6.61861 10.192 6.58862 10.1631 6.56541 10.1292C6.5422 10.0952 6.52626 10.0567 6.5186 10.0163C6.51626 9.99067 6.51626 9.96491 6.5186 9.93927C6.51631 9.8913 6.52562 9.84345 6.54575 9.79984C6.56588 9.75624 6.59622 9.71814 6.63422 9.68876C6.7182 9.62794 6.81957 9.59581 6.92326 9.5972H9.14406C9.23614 9.59396 9.32698 9.61921 9.4042 9.66947C9.4399 9.69036 9.47052 9.71894 9.49384 9.75309C9.51717 9.78725 9.53262 9.82615 9.53908 9.867C9.54143 9.89103 9.54143 9.91524 9.53908 9.93927C9.54135 9.98794 9.53206 10.0364 9.51197 10.0808C9.49187 10.1252 9.46154 10.1642 9.42347 10.1945C9.34153 10.2553 9.24114 10.286 9.13924 10.2813H8.42627V12.8152C8.42917 12.8692 8.42081 12.9232 8.40174 12.9738C8.38267 13.0243 8.35329 13.0704 8.31547 13.1091C8.27921 13.146 8.23562 13.175 8.1875 13.194C8.13938 13.2131 8.08779 13.2219 8.03607 13.2199C7.94559 13.2224 7.85704 13.1935 7.78556 13.138C7.71752 13.0838 7.67133 13.0068 7.6555 12.9212C7.65074 12.886 7.65074 12.8504 7.6555 12.8152L7.65068 10.2813Z" fill="#FEE500"/>
<path d="M9.75162 9.78514C9.77281 9.70586 9.82257 9.63722 9.89132 9.59243C9.96458 9.55091 10.0481 9.53087 10.1322 9.53462H10.3152C10.4045 9.53143 10.4929 9.55311 10.5706 9.59725C10.6529 9.65259 10.7113 9.73685 10.7344 9.8333L11.6978 12.5551C11.7228 12.6261 11.7437 12.6985 11.7605 12.7719C11.7621 12.8024 11.7621 12.8329 11.7605 12.8634C11.7621 12.9104 11.7534 12.9571 11.7351 13.0004C11.7168 13.0437 11.6893 13.0824 11.6545 13.1139C11.6207 13.1485 11.5802 13.1758 11.5354 13.194C11.4907 13.2123 11.4427 13.2211 11.3943 13.2199C11.32 13.2273 11.2454 13.2095 11.1825 13.1693C11.1196 13.1291 11.072 13.0689 11.0475 12.9983L10.8452 12.4058H9.57819L9.37587 12.9983C9.35193 13.0703 9.3038 13.1316 9.23968 13.172C9.17555 13.2125 9.0994 13.2294 9.0242 13.2199C8.94274 13.222 8.86294 13.1966 8.79778 13.1476C8.73429 13.0972 8.69146 13.0252 8.67735 12.9454C8.67479 12.9181 8.67479 12.8907 8.67735 12.8634C8.66907 12.8156 8.66907 12.7668 8.67735 12.7189C8.67735 12.666 8.71107 12.6081 8.73034 12.5551L9.75162 9.78514ZM10.2334 10.4162L9.7757 11.8614H10.6862L10.2334 10.4162Z" fill="#FEE500"/>
<path d="M11.8708 9.93928C11.8659 9.83117 11.904 9.72553 11.9768 9.64543C12.0138 9.60811 12.0582 9.57895 12.1071 9.55987C12.1561 9.54078 12.2085 9.53215 12.261 9.53458C12.3512 9.53353 12.4393 9.56234 12.5115 9.6165C12.5784 9.67301 12.6228 9.75161 12.6367 9.83808C12.6415 9.87163 12.6415 9.90573 12.6367 9.93928V12.4732H13.9615C14.0533 12.472 14.1436 12.497 14.2216 12.5454C14.2567 12.5671 14.2869 12.5958 14.3101 12.6299C14.3333 12.6639 14.3492 12.7024 14.3565 12.743C14.3565 12.743 14.3565 12.7911 14.3565 12.8152C14.3588 12.8632 14.3495 12.911 14.3294 12.9546C14.3093 12.9982 14.2789 13.0364 14.2409 13.0657C14.1569 13.1266 14.0556 13.1586 13.9519 13.1572H12.3236C12.2199 13.1639 12.1168 13.1369 12.0298 13.0802C11.9519 13.022 11.9 12.9355 11.8852 12.8393C11.8817 12.7864 11.8817 12.7333 11.8852 12.6803L11.8708 9.93928Z" fill="#FEE500"/>
<path d="M14.4434 9.93943C14.4405 9.83163 14.4783 9.72672 14.5493 9.64558C14.6215 9.57997 14.7142 9.54123 14.8116 9.53596C14.909 9.5307 15.0052 9.5592 15.0841 9.61664C15.1524 9.67265 15.1986 9.75122 15.2141 9.83822C15.2165 9.8719 15.2165 9.90575 15.2141 9.93943V11.1197L16.4329 9.71297C16.4799 9.66498 16.5298 9.61997 16.5823 9.57813C16.6317 9.54866 16.6885 9.5336 16.7461 9.53473C16.8303 9.53427 16.9126 9.55948 16.9821 9.607C17.0149 9.62906 17.0428 9.65751 17.0644 9.69062C17.0859 9.72373 17.1005 9.76082 17.1074 9.79971C17.1093 9.80924 17.1093 9.8191 17.1074 9.82864C17.105 9.83976 17.105 9.85121 17.1074 9.86233C17.1072 9.91302 17.0939 9.96283 17.0688 10.0069C17.0433 10.0535 17.0126 10.0971 16.9773 10.1369L16.1776 11.0137L17.1411 12.5071V12.5552C17.1911 12.6243 17.2301 12.7007 17.2567 12.7817V12.8057C17.2623 12.8615 17.2542 12.9179 17.2332 12.9699C17.2123 13.0219 17.179 13.0681 17.1363 13.1044C17.0559 13.1651 16.9576 13.1974 16.8569 13.196C16.7899 13.1987 16.7235 13.1837 16.6642 13.1526C16.6 13.1095 16.5471 13.0517 16.51 12.984L15.614 11.5388L15.1852 11.9868V12.7913C15.1881 12.8991 15.1503 13.004 15.0793 13.0851C15.0412 13.1223 14.9959 13.1514 14.9462 13.1704C14.8965 13.1895 14.8434 13.1982 14.7902 13.196C14.7013 13.1978 14.6145 13.1689 14.5445 13.114C14.4765 13.0598 14.4303 12.9829 14.4145 12.8973C14.4097 12.8621 14.4097 12.8264 14.4145 12.7913L14.4434 9.93943Z" fill="#FEE500"/>
</svg>
