<svg width="71" height="74" viewBox="0 0 71 74" fill="none" xmlns="http://www.w3.org/2000/svg">
<path d="M35.4999 35C43.6691 35 50.2916 28.4708 50.2916 20.4167C50.2916 12.3625 43.6691 5.83333 35.4999 5.83333C27.3307 5.83333 20.7083 12.3625 20.7083 20.4167C20.7083 28.4708 27.3307 35 35.4999 35Z" fill="white"/>
<path d="M35.4996 42.2917C20.6784 42.2917 8.6084 52.0917 8.6084 64.1667C8.6084 64.9833 8.67167 67 9.5 67L12.5 69L15.5 70L19 71.5L22.5 72.5L29.5 74H36.5H40.5L45 73L53.5 71C61 67.5 63.5 65 63.5 65C63.5 52.925 50.3209 42.2917 35.4996 42.2917Z" fill="white"/>
</svg>
