<svg width="15" height="15" viewBox="0 0 15 15" fill="none" xmlns="http://www.w3.org/2000/svg">
<path d="M5.83333 8.33333H0.833333C0.61232 8.33333 0.400358 8.42113 0.244078 8.57741C0.0877973 8.73369 0 8.94565 0 9.16667V14.1667C0 14.3877 0.0877973 14.5996 0.244078 14.7559C0.400358 14.9122 0.61232 15 0.833333 15H5.83333C6.05435 15 6.26631 14.9122 6.42259 14.7559C6.57887 14.5996 6.66667 14.3877 6.66667 14.1667V9.16667C6.66667 8.94565 6.57887 8.73369 6.42259 8.57741C6.26631 8.42113 6.05435 8.33333 5.83333 8.33333ZM5 13.3333H1.66667V10H5V13.3333ZM14.1667 0H9.16667C8.94565 0 8.73369 0.0877973 8.57741 0.244078C8.42113 0.400358 8.33333 0.61232 8.33333 0.833333V5.83333C8.33333 6.05435 8.42113 6.26631 8.57741 6.42259C8.73369 6.57887 8.94565 6.66667 9.16667 6.66667H14.1667C14.3877 6.66667 14.5996 6.57887 14.7559 6.42259C14.9122 6.26631 15 6.05435 15 5.83333V0.833333C15 0.61232 14.9122 0.400358 14.7559 0.244078C14.5996 0.0877973 14.3877 0 14.1667 0V0ZM13.3333 5H10V1.66667H13.3333V5ZM14.1667 10.8333H12.5V9.16667C12.5 8.94565 12.4122 8.73369 12.2559 8.57741C12.0996 8.42113 11.8877 8.33333 11.6667 8.33333C11.4457 8.33333 11.2337 8.42113 11.0774 8.57741C10.9211 8.73369 10.8333 8.94565 10.8333 9.16667V10.8333H9.16667C8.94565 10.8333 8.73369 10.9211 8.57741 11.0774C8.42113 11.2337 8.33333 11.4457 8.33333 11.6667C8.33333 11.8877 8.42113 12.0996 8.57741 12.2559C8.73369 12.4122 8.94565 12.5 9.16667 12.5H10.8333V14.1667C10.8333 14.3877 10.9211 14.5996 11.0774 14.7559C11.2337 14.9122 11.4457 15 11.6667 15C11.8877 15 12.0996 14.9122 12.2559 14.7559C12.4122 14.5996 12.5 14.3877 12.5 14.1667V12.5H14.1667C14.3877 12.5 14.5996 12.4122 14.7559 12.2559C14.9122 12.0996 15 11.8877 15 11.6667C15 11.4457 14.9122 11.2337 14.7559 11.0774C14.5996 10.9211 14.3877 10.8333 14.1667 10.8333ZM5.83333 0H0.833333C0.61232 0 0.400358 0.0877973 0.244078 0.244078C0.0877973 0.400358 0 0.61232 0 0.833333V5.83333C0 6.05435 0.0877973 6.26631 0.244078 6.42259C0.400358 6.57887 0.61232 6.66667 0.833333 6.66667H5.83333C6.05435 6.66667 6.26631 6.57887 6.42259 6.42259C6.57887 6.26631 6.66667 6.05435 6.66667 5.83333V0.833333C6.66667 0.61232 6.57887 0.400358 6.42259 0.244078C6.26631 0.0877973 6.05435 0 5.83333 0V0ZM5 5H1.66667V1.66667H5V5Z" fill="#324054"/>
</svg>
