<svg width="375" height="568" viewBox="0 0 375 568" fill="none" xmlns="http://www.w3.org/2000/svg">
<g filter="url(#filter0_d_19_1022)">
<rect x="14" y="426" width="348" height="122" rx="24" fill="#5AEEC4"/>
</g>
<path d="M51.7 455.32H54V456.66C54 457.46 53.8867 458.24 53.66 459C53.4467 459.747 53.1267 460.453 52.7 461.12C52.2733 461.787 51.7467 462.393 51.12 462.94C50.5067 463.473 49.8 463.933 49 464.32C48.2 464.707 47.32 464.993 46.36 465.18L45.22 462.96C46.0467 462.813 46.8 462.593 47.48 462.3C48.1733 461.993 48.78 461.627 49.3 461.2C49.82 460.773 50.26 460.313 50.62 459.82C50.98 459.313 51.2467 458.793 51.42 458.26C51.6067 457.713 51.7 457.18 51.7 456.66V455.32ZM52.22 455.32H54.54V456.66C54.54 457.193 54.6267 457.733 54.8 458.28C54.9867 458.827 55.2533 459.353 55.6 459.86C55.96 460.353 56.4 460.807 56.92 461.22C57.44 461.633 58.04 461.993 58.72 462.3C59.4 462.593 60.1667 462.813 61.02 462.96L59.88 465.18C58.92 464.993 58.04 464.707 57.24 464.32C56.44 463.933 55.7267 463.473 55.1 462.94C54.4867 462.407 53.96 461.807 53.52 461.14C53.0933 460.473 52.7667 459.76 52.54 459C52.3267 458.24 52.22 457.46 52.22 456.66V455.32ZM44.82 468.34H61.6V470.52H44.82V468.34ZM65.1784 463.78H78.1984V465.88H65.1784V463.78ZM63.2184 468.5H79.9984V470.66H63.2184V468.5ZM65.1784 455.6H78.0584V457.72H67.8784V464.36H65.1784V455.6ZM67.0584 459.68H77.6384V461.74H67.0584V459.68ZM82.1169 466.28H83.4369C84.5569 466.28 85.6302 466.253 86.6569 466.2C87.6969 466.133 88.7902 466.007 89.9369 465.82L90.1569 467.96C88.9835 468.173 87.8569 468.307 86.7769 468.36C85.7102 468.413 84.5969 468.44 83.4369 468.44H82.1169V466.28ZM82.0769 456.08H88.6369V463.16H84.6969V467.1H82.1169V461.06H86.0769V458.18H82.0769V456.08ZM94.9769 454.24H97.5169V472.76H94.9769V454.24ZM89.3969 460.54H92.2569V462.72H89.3969V460.54ZM91.2169 454.58H93.6769V471.88H91.2169V454.58ZM106.895 455.32H109.195V456.66C109.195 457.46 109.082 458.24 108.855 459C108.642 459.747 108.322 460.453 107.895 461.12C107.469 461.787 106.942 462.393 106.315 462.94C105.702 463.473 104.995 463.933 104.195 464.32C103.395 464.707 102.515 464.993 101.555 465.18L100.415 462.96C101.242 462.813 101.995 462.593 102.675 462.3C103.369 461.993 103.975 461.627 104.495 461.2C105.015 460.773 105.455 460.313 105.815 459.82C106.175 459.313 106.442 458.793 106.615 458.26C106.802 457.713 106.895 457.18 106.895 456.66V455.32ZM107.415 455.32H109.735V456.66C109.735 457.193 109.822 457.733 109.995 458.28C110.182 458.827 110.449 459.353 110.795 459.86C111.155 460.353 111.595 460.807 112.115 461.22C112.635 461.633 113.235 461.993 113.915 462.3C114.595 462.593 115.362 462.813 116.215 462.96L115.075 465.18C114.115 464.993 113.235 464.707 112.435 464.32C111.635 463.933 110.922 463.473 110.295 462.94C109.682 462.407 109.155 461.807 108.715 461.14C108.289 460.473 107.962 459.76 107.735 459C107.522 458.24 107.415 457.46 107.415 456.66V455.32ZM100.015 468.34H116.795V470.52H100.015V468.34ZM129.007 457.18H131.127V459.26C131.127 460.327 131.013 461.373 130.787 462.4C130.573 463.427 130.247 464.393 129.807 465.3C129.38 466.193 128.84 466.987 128.187 467.68C127.533 468.36 126.773 468.9 125.907 469.3L124.387 467.2C125.16 466.84 125.833 466.373 126.407 465.8C126.993 465.227 127.473 464.587 127.847 463.88C128.233 463.16 128.52 462.407 128.707 461.62C128.907 460.82 129.007 460.033 129.007 459.26V457.18ZM129.587 457.18H131.687V459.26C131.687 459.993 131.78 460.74 131.967 461.5C132.167 462.247 132.453 462.96 132.827 463.64C133.2 464.307 133.673 464.907 134.247 465.44C134.82 465.973 135.5 466.4 136.287 466.72L134.827 468.84C133.947 468.453 133.18 467.933 132.527 467.28C131.873 466.627 131.327 465.873 130.887 465.02C130.447 464.167 130.12 463.253 129.907 462.28C129.693 461.293 129.587 460.287 129.587 459.26V457.18ZM125.127 456.02H135.527V458.22H125.127V456.02ZM137.247 454.26H139.907V472.78H137.247V454.26ZM149.925 454.78H152.245V455.66C152.245 456.367 152.132 457.053 151.905 457.72C151.692 458.373 151.372 458.987 150.945 459.56C150.518 460.133 149.998 460.647 149.385 461.1C148.772 461.553 148.058 461.94 147.245 462.26C146.445 462.567 145.565 462.8 144.605 462.96L143.565 460.82C144.418 460.713 145.178 460.533 145.845 460.28C146.525 460.027 147.118 459.727 147.625 459.38C148.145 459.033 148.572 458.653 148.905 458.24C149.238 457.827 149.492 457.4 149.665 456.96C149.838 456.52 149.925 456.087 149.925 455.66V454.78ZM150.425 454.78H152.745V455.66C152.745 456.087 152.832 456.52 153.005 456.96C153.178 457.4 153.432 457.827 153.765 458.24C154.098 458.653 154.518 459.033 155.025 459.38C155.545 459.727 156.138 460.027 156.805 460.28C157.485 460.533 158.252 460.713 159.105 460.82L158.065 462.96C157.092 462.8 156.205 462.567 155.405 462.26C154.605 461.94 153.898 461.553 153.285 461.1C152.672 460.633 152.152 460.113 151.725 459.54C151.298 458.967 150.972 458.353 150.745 457.7C150.532 457.047 150.425 456.367 150.425 455.66V454.78ZM149.925 465.98H152.585V472.78H149.925V465.98ZM142.945 464.3H159.705V466.46H142.945V464.3Z" fill="white"/>
<path d="M46 504.483C46 499.719 49.7117 495.784 54.4694 495.538C65.9057 494.947 86.5705 494 101.5 494C116.429 494 137.094 494.947 148.531 495.538C153.288 495.784 157 499.719 157 504.483V521.517C157 526.281 153.288 530.216 148.531 530.462C137.094 531.053 116.429 532 101.5 532C86.5705 532 65.9057 531.053 54.4694 530.462C49.7117 530.216 46 526.281 46 521.517V504.483Z" fill="#C9EEDF"/>
<path d="M86.06 518L82.154 508.2H84.38L86.424 513.506C86.536 513.795 86.6293 514.052 86.704 514.276C86.788 514.491 86.858 514.696 86.914 514.892C86.9793 515.079 87.04 515.265 87.096 515.452C87.152 515.629 87.208 515.825 87.264 516.04L86.858 516.054C86.9327 515.765 87.0073 515.499 87.082 515.256C87.1567 515.004 87.2407 514.743 87.334 514.472C87.4273 514.201 87.544 513.879 87.684 513.506L89.616 508.2H91.828L87.894 518H86.06ZM93.1425 518V510.594H95.1305V518H93.1425ZM94.1225 509.068C93.7398 509.068 93.4411 508.975 93.2265 508.788C93.0118 508.601 92.9045 508.335 92.9045 507.99C92.9045 507.673 93.0118 507.416 93.2265 507.22C93.4505 507.015 93.7491 506.912 94.1225 506.912C94.5051 506.912 94.8038 507.01 95.0185 507.206C95.2331 507.393 95.3405 507.654 95.3405 507.99C95.3405 508.317 95.2285 508.578 95.0045 508.774C94.7898 508.97 94.4958 509.068 94.1225 509.068ZM100.768 518.14C99.9651 518.14 99.2651 517.977 98.6678 517.65C98.0704 517.323 97.6038 516.875 97.2678 516.306C96.9318 515.737 96.7638 515.083 96.7638 514.346C96.7638 513.777 96.8571 513.254 97.0438 512.778C97.2304 512.302 97.4918 511.891 97.8278 511.546C98.1638 511.191 98.5604 510.921 99.0178 510.734C99.4844 510.538 99.9884 510.44 100.53 510.44C101.034 510.44 101.5 510.533 101.93 510.72C102.359 510.897 102.728 511.154 103.036 511.49C103.353 511.817 103.596 512.204 103.764 512.652C103.932 513.1 104.006 513.59 103.988 514.122L103.974 514.738H98.0238L97.7018 513.52H102.336L102.112 513.772V513.464C102.093 513.212 102.009 512.983 101.86 512.778C101.72 512.573 101.538 512.414 101.314 512.302C101.09 512.19 100.838 512.134 100.558 512.134C100.147 512.134 99.7971 512.213 99.5078 512.372C99.2278 512.531 99.0131 512.764 98.8638 513.072C98.7144 513.38 98.6398 513.753 98.6398 514.192C98.6398 514.64 98.7331 515.027 98.9198 515.354C99.1158 515.681 99.3864 515.937 99.7318 516.124C100.086 516.301 100.502 516.39 100.978 516.39C101.304 516.39 101.603 516.339 101.874 516.236C102.144 516.133 102.434 515.956 102.742 515.704L103.694 517.034C103.423 517.277 103.124 517.482 102.798 517.65C102.471 517.809 102.135 517.93 101.79 518.014C101.444 518.098 101.104 518.14 100.768 518.14ZM107.014 518L104.536 510.594H106.608L108.12 515.634L107.812 515.592L109.478 511.658H110.654L112.39 515.606L112.054 515.634L113.566 510.594H115.638L113.118 518H111.676L109.926 513.786L110.15 513.814L108.442 518H107.014Z" fill="#2B886E"/>
<path d="M308 487C308 507.987 290.987 525 270 525C249.013 525 232 507.987 232 487C232 466.013 249.013 449 270 449C290.987 449 308 466.013 308 487ZM239.986 487C239.986 503.576 253.424 517.014 270 517.014C286.576 517.014 300.014 503.576 300.014 487C300.014 470.424 286.576 456.986 270 456.986C253.424 456.986 239.986 470.424 239.986 487Z" fill="#5ECCAC"/>
<path d="M271.401 453.022C271.492 450.819 269.776 448.937 267.575 449.077C262.155 449.424 256.855 450.93 252.041 453.511C246.051 456.724 241.032 461.484 237.507 467.297C233.983 473.109 232.082 479.761 232.003 486.558C231.939 492.019 233.054 497.415 235.252 502.381C236.145 504.398 238.607 505.05 240.519 503.951C242.431 502.852 243.062 500.417 242.226 498.377C240.708 494.67 239.941 490.683 239.988 486.651C240.051 481.282 241.552 476.029 244.336 471.438C247.12 466.847 251.084 463.087 255.816 460.55C259.37 458.644 263.259 457.48 267.248 457.113C269.444 456.91 271.311 455.226 271.401 453.022Z" fill="#C9EEDE"/>
<path d="M265.514 492.14C264.823 492.14 264.221 491.981 263.708 491.664C263.204 491.347 262.728 490.815 262.28 490.068L263.456 489.326C263.689 489.671 263.918 489.956 264.142 490.18C264.375 490.395 264.613 490.553 264.856 490.656C265.099 490.759 265.355 490.81 265.626 490.81C265.953 490.81 266.256 490.731 266.536 490.572C266.816 490.404 267.04 490.175 267.208 489.886C267.376 489.597 267.46 489.27 267.46 488.906C267.46 488.542 267.395 488.234 267.264 487.982C267.133 487.721 266.942 487.525 266.69 487.394C266.438 487.254 266.139 487.184 265.794 487.184C265.635 487.184 265.467 487.203 265.29 487.24C265.122 487.268 264.94 487.315 264.744 487.38C264.548 487.436 264.333 487.511 264.1 487.604L263.68 486.498L266.704 483.166L266.998 483.6H262.826V482.2H268.44L268.72 482.76L265.514 486.316L265.164 485.952C265.239 485.915 265.36 485.882 265.528 485.854C265.705 485.817 265.85 485.798 265.962 485.798C266.373 485.798 266.755 485.877 267.11 486.036C267.474 486.185 267.787 486.4 268.048 486.68C268.319 486.951 268.529 487.273 268.678 487.646C268.837 488.01 268.916 488.402 268.916 488.822C268.916 489.457 268.762 490.026 268.454 490.53C268.155 491.025 267.749 491.417 267.236 491.706C266.723 491.995 266.149 492.14 265.514 492.14ZM273.652 492.14C272.905 492.14 272.261 491.935 271.72 491.524C271.188 491.113 270.777 490.535 270.488 489.788C270.199 489.032 270.054 488.136 270.054 487.1C270.054 486.064 270.199 485.173 270.488 484.426C270.777 483.67 271.188 483.087 271.72 482.676C272.261 482.265 272.905 482.06 273.652 482.06C274.399 482.06 275.043 482.265 275.584 482.676C276.125 483.087 276.541 483.67 276.83 484.426C277.119 485.173 277.264 486.064 277.264 487.1C277.264 488.136 277.119 489.032 276.83 489.788C276.541 490.535 276.125 491.113 275.584 491.524C275.043 491.935 274.399 492.14 273.652 492.14ZM273.652 490.768C274.333 490.768 274.861 490.451 275.234 489.816C275.607 489.172 275.794 488.267 275.794 487.1C275.794 485.933 275.607 485.033 275.234 484.398C274.861 483.754 274.333 483.432 273.652 483.432C272.971 483.432 272.443 483.754 272.07 484.398C271.697 485.033 271.51 485.933 271.51 487.1C271.51 488.267 271.697 489.172 272.07 489.816C272.443 490.451 272.971 490.768 273.652 490.768Z" fill="white"/>
<defs>
<filter id="filter0_d_19_1022" x="-6" y="406" width="388" height="162" filterUnits="userSpaceOnUse" color-interpolation-filters="sRGB">
<feFlood flood-opacity="0" result="BackgroundImageFix"/>
<feColorMatrix in="SourceAlpha" type="matrix" values="0 0 0 0 0 0 0 0 0 0 0 0 0 0 0 0 0 0 127 0" result="hardAlpha"/>
<feOffset/>
<feGaussianBlur stdDeviation="10"/>
<feComposite in2="hardAlpha" operator="out"/>
<feColorMatrix type="matrix" values="0 0 0 0 0 0 0 0 0 0 0 0 0 0 0 0 0 0 0.03 0"/>
<feBlend mode="normal" in2="BackgroundImageFix" result="effect1_dropShadow_19_1022"/>
<feBlend mode="normal" in="SourceGraphic" in2="effect1_dropShadow_19_1022" result="shape"/>
</filter>
</defs>
</svg>
