<svg width="372" height="195" viewBox="0 0 372 195" fill="none" xmlns="http://www.w3.org/2000/svg">
<g filter="url(#filter0_d_100_2667)">
<rect x="15" y="12" width="343" height="165" rx="20" fill="white"/>
<rect x="15.5" y="12.5" width="342" height="164" rx="19.5" stroke="#EFF0F6"/>
</g>
<line x1="54" y1="42.9" x2="331" y2="42.9" stroke="black" stroke-width="0.2" stroke-dasharray="5 5"/>
<line y1="-0.1" x2="277.865" y2="-0.1" transform="matrix(0.999899 0.0142407 -0.0144308 0.999896 53.5654 91)" stroke="black" stroke-width="0.2" stroke-dasharray="5 5"/>
<line x1="54" y1="147.9" x2="331" y2="147.9" stroke="black" stroke-width="0.2" stroke-dasharray="5 5"/>
<path d="M29.7486 39.4545V46H29.1509V40.081H29.1126L27.5785 41.1005V40.4805L29.1254 39.4545H29.7486ZM33.7692 46.0895C33.3089 46.0895 32.9158 45.9574 32.5898 45.6932C32.266 45.4268 32.0167 45.0423 31.842 44.5394C31.6694 44.0366 31.5831 43.4325 31.5831 42.7273C31.5831 42.0241 31.6694 41.4222 31.842 40.9215C32.0167 40.4187 32.267 40.0341 32.593 39.7678C32.9212 39.4993 33.3132 39.3651 33.7692 39.3651C34.2251 39.3651 34.6161 39.4993 34.9421 39.7678C35.2702 40.0341 35.5206 40.4187 35.6932 40.9215C35.8679 41.4222 35.9553 42.0241 35.9553 42.7273C35.9553 43.4325 35.8679 44.0366 35.6932 44.5394C35.5206 45.0423 35.2713 45.4268 34.9453 45.6932C34.6214 45.9574 34.2294 46.0895 33.7692 46.0895ZM33.7692 45.5526C34.2741 45.5526 34.6683 45.3065 34.9517 44.8143C35.2351 44.32 35.3768 43.6243 35.3768 42.7273C35.3768 42.1307 35.3118 41.6214 35.1818 41.1996C35.054 40.7756 34.8697 40.4517 34.6289 40.228C34.3903 40.0043 34.1037 39.8924 33.7692 39.8924C33.2685 39.8924 32.8754 40.1417 32.5898 40.6403C32.3043 41.1367 32.1616 41.8324 32.1616 42.7273C32.1616 43.3239 32.2255 43.8331 32.3533 44.255C32.4833 44.6768 32.6676 44.9986 32.9062 45.2202C33.147 45.4418 33.4347 45.5526 33.7692 45.5526ZM39.2887 46.0895C38.8285 46.0895 38.4354 45.9574 38.1094 45.6932C37.7855 45.4268 37.5362 45.0423 37.3615 44.5394C37.1889 44.0366 37.1026 43.4325 37.1026 42.7273C37.1026 42.0241 37.1889 41.4222 37.3615 40.9215C37.5362 40.4187 37.7866 40.0341 38.1126 39.7678C38.4407 39.4993 38.8327 39.3651 39.2887 39.3651C39.7447 39.3651 40.1357 39.4993 40.4616 39.7678C40.7898 40.0341 41.0401 40.4187 41.2127 40.9215C41.3874 41.4222 41.4748 42.0241 41.4748 42.7273C41.4748 43.4325 41.3874 44.0366 41.2127 44.5394C41.0401 45.0423 40.7908 45.4268 40.4648 45.6932C40.141 45.9574 39.7489 46.0895 39.2887 46.0895ZM39.2887 45.5526C39.7937 45.5526 40.1879 45.3065 40.4712 44.8143C40.7546 44.32 40.8963 43.6243 40.8963 42.7273C40.8963 42.1307 40.8313 41.6214 40.7013 41.1996C40.5735 40.7756 40.3892 40.4517 40.1484 40.228C39.9098 40.0043 39.6232 39.8924 39.2887 39.8924C38.788 39.8924 38.3949 40.1417 38.1094 40.6403C37.8239 41.1367 37.6811 41.8324 37.6811 42.7273C37.6811 43.3239 37.745 43.8331 37.8729 44.255C38.0028 44.6768 38.1871 44.9986 38.4258 45.2202C38.6665 45.4418 38.9542 45.5526 39.2887 45.5526Z" fill="#77838F"/>
<path d="M31.6431 94.0895C31.2788 94.0895 30.9528 94.016 30.6651 93.869C30.3796 93.7198 30.1516 93.5153 29.9812 93.2553C29.8129 92.9954 29.7234 92.6982 29.7127 92.3636H30.2912C30.3104 92.7109 30.4467 92.9964 30.7003 93.2202C30.9538 93.4418 31.2681 93.5526 31.6431 93.5526C31.935 93.5526 32.195 93.4833 32.4229 93.3448C32.6509 93.2042 32.8288 93.0124 32.9567 92.7695C33.0866 92.5245 33.1516 92.2486 33.1516 91.9418C33.1495 91.6222 33.0803 91.3409 32.9439 91.098C32.8075 90.853 32.6222 90.6612 32.3878 90.5227C32.1555 90.3842 31.8945 90.315 31.6048 90.315C31.3853 90.3129 31.1701 90.3491 30.9592 90.4237C30.7482 90.4982 30.5724 90.5941 30.4318 90.7113L29.8342 90.6346L30.2273 87.4545H33.4616V87.9915H30.729L30.467 90.1808H30.4989C30.6438 90.0593 30.8196 89.9602 31.0263 89.8835C31.2351 89.8068 31.4556 89.7685 31.6879 89.7685C32.0735 89.7685 32.4197 89.8612 32.7266 90.0465C33.0355 90.2319 33.2795 90.4876 33.4585 90.8136C33.6396 91.1374 33.7301 91.5103 33.7301 91.9322C33.7301 92.3455 33.6396 92.7152 33.4585 93.0412C33.2795 93.3651 33.0323 93.6207 32.717 93.8082C32.4038 93.9957 32.0458 94.0895 31.6431 94.0895ZM37.1227 94.0895C36.6625 94.0895 36.2694 93.9574 35.9434 93.6932C35.6195 93.4268 35.3702 93.0423 35.1955 92.5394C35.0229 92.0366 34.9366 91.4325 34.9366 90.7273C34.9366 90.0241 35.0229 89.4222 35.1955 88.9215C35.3702 88.4187 35.6206 88.0341 35.9466 87.7678C36.2747 87.4993 36.6667 87.3651 37.1227 87.3651C37.5787 87.3651 37.9696 87.4993 38.2956 87.7678C38.6238 88.0341 38.8741 88.4187 39.0467 88.9215C39.2214 89.4222 39.3088 90.0241 39.3088 90.7273C39.3088 91.4325 39.2214 92.0366 39.0467 92.5394C38.8741 93.0423 38.6248 93.4268 38.2988 93.6932C37.975 93.9574 37.5829 94.0895 37.1227 94.0895ZM37.1227 93.5526C37.6277 93.5526 38.0218 93.3065 38.3052 92.8143C38.5886 92.32 38.7303 91.6243 38.7303 90.7273C38.7303 90.1307 38.6653 89.6214 38.5353 89.1996C38.4075 88.7756 38.2232 88.4517 37.9824 88.228C37.7438 88.0043 37.4572 87.8924 37.1227 87.8924C36.622 87.8924 36.2289 88.1417 35.9434 88.6403C35.6578 89.1367 35.5151 89.8324 35.5151 90.7273C35.5151 91.3239 35.579 91.8331 35.7069 92.255C35.8368 92.6768 36.0211 92.9986 36.2598 93.2202C36.5005 93.4418 36.7882 93.5526 37.1227 93.5526Z" fill="#77838F"/>
<path d="M37.7614 151.089C37.3011 151.089 36.908 150.957 36.582 150.693C36.2582 150.427 36.0089 150.042 35.8342 149.539C35.6616 149.037 35.5753 148.433 35.5753 147.727C35.5753 147.024 35.6616 146.422 35.8342 145.922C36.0089 145.419 36.2592 145.034 36.5852 144.768C36.9134 144.499 37.3054 144.365 37.7614 144.365C38.2173 144.365 38.6083 144.499 38.9343 144.768C39.2624 145.034 39.5128 145.419 39.6854 145.922C39.8601 146.422 39.9474 147.024 39.9474 147.727C39.9474 148.433 39.8601 149.037 39.6854 149.539C39.5128 150.042 39.2635 150.427 38.9375 150.693C38.6136 150.957 38.2216 151.089 37.7614 151.089ZM37.7614 150.553C38.2663 150.553 38.6605 150.306 38.9439 149.814C39.2273 149.32 39.369 148.624 39.369 147.727C39.369 147.131 39.304 146.621 39.174 146.2C39.0462 145.776 38.8619 145.452 38.6211 145.228C38.3825 145.004 38.0959 144.892 37.7614 144.892C37.2607 144.892 36.8675 145.142 36.582 145.64C36.2965 146.137 36.1538 146.832 36.1538 147.727C36.1538 148.324 36.2177 148.833 36.3455 149.255C36.4755 149.677 36.6598 149.999 36.8984 150.22C37.1392 150.442 37.4268 150.553 37.7614 150.553Z" fill="#77838F"/>
<path d="M67.8061 157.365C68.098 157.367 68.3857 157.42 68.669 157.525C68.9524 157.629 69.2081 157.8 69.4361 158.036C69.6662 158.273 69.8494 158.592 69.9858 158.995C70.1243 159.396 70.1946 159.894 70.1967 160.491C70.1967 161.064 70.1392 161.574 70.0241 162.022C69.9091 162.467 69.744 162.843 69.5288 163.15C69.3157 163.457 69.0568 163.69 68.7521 163.85C68.4474 164.01 68.1044 164.089 67.723 164.089C67.3331 164.089 66.9869 164.013 66.6843 163.859C66.3817 163.706 66.1357 163.494 65.946 163.223C65.7564 162.951 65.6381 162.637 65.5913 162.284H66.5661C66.63 162.565 66.7599 162.793 66.956 162.968C67.1541 163.14 67.4098 163.227 67.723 163.227C68.2024 163.227 68.5763 163.018 68.8448 162.6C69.1133 162.18 69.2486 161.594 69.2507 160.842H69.1996C69.0888 161.026 68.9503 161.183 68.7841 161.315C68.62 161.447 68.4357 161.55 68.2312 161.622C68.0266 161.695 67.8082 161.731 67.576 161.731C67.1989 161.731 66.8558 161.638 66.5469 161.453C66.2379 161.267 65.9918 161.013 65.8086 160.689C65.6254 160.365 65.5337 159.995 65.5337 159.58C65.5337 159.167 65.6275 158.792 65.815 158.455C66.0046 158.118 66.2688 157.852 66.6076 157.656C66.9485 157.458 67.348 157.361 67.8061 157.365ZM67.8093 158.196C67.56 158.196 67.3352 158.258 67.1349 158.381C66.9368 158.503 66.7802 158.668 66.6651 158.877C66.5501 159.083 66.4925 159.314 66.4925 159.567C66.4925 159.821 66.5479 160.051 66.6587 160.257C66.7717 160.462 66.9251 160.625 67.119 160.746C67.315 160.866 67.5387 160.925 67.7901 160.925C67.9776 160.925 68.1523 160.889 68.3143 160.817C68.4762 160.744 68.6179 160.644 68.7393 160.516C68.8608 160.386 68.9556 160.239 69.0238 160.075C69.092 159.911 69.1261 159.739 69.1261 159.558C69.1261 159.317 69.0685 159.093 68.9535 158.886C68.8406 158.68 68.685 158.513 68.4869 158.388C68.2887 158.26 68.0629 158.196 67.8093 158.196ZM71.9937 164H70.9454L73.3009 157.455H74.4419L76.7973 164H75.749L73.8985 158.643H73.8474L71.9937 164ZM72.1695 161.437H75.57V162.268H72.1695V161.437ZM77.7425 157.455H78.9411L81.0249 162.543H81.1016L83.1854 157.455H84.3839V164H83.4442V159.263H83.3835L81.4531 163.99H80.6733L78.7429 159.26H78.6822V164H77.7425V157.455Z" fill="#77838F"/>
<path d="M124.113 157.455V164H123.122V158.445H123.084L121.518 159.468V158.522L123.151 157.455H124.113ZM128.367 157.455V164H127.376V158.445H127.338L125.772 159.468V158.522L127.405 157.455H128.367ZM130.78 164H129.732L132.087 157.455H133.228L135.583 164H134.535L132.685 158.643H132.634L130.78 164ZM130.956 161.437H134.356V162.268H130.956V161.437ZM136.529 157.455H137.727L139.811 162.543H139.888L141.972 157.455H143.17V164H142.23V159.263H142.17L140.239 163.99H139.459L137.529 159.26H137.468V164H136.529V157.455Z" fill="#77838F"/>
<path d="M184.113 157.455V164H183.122V158.445H183.084L181.518 159.468V158.522L183.151 157.455H184.113ZM185.973 164V157.455H188.306C188.815 157.455 189.237 157.547 189.572 157.733C189.906 157.918 190.157 158.172 190.323 158.493C190.489 158.813 190.572 159.173 190.572 159.574C190.572 159.976 190.488 160.338 190.32 160.66C190.153 160.98 189.902 161.233 189.565 161.421C189.231 161.606 188.81 161.699 188.303 161.699H186.699V160.862H188.213C188.535 160.862 188.796 160.806 188.996 160.695C189.197 160.582 189.344 160.429 189.438 160.235C189.531 160.041 189.578 159.821 189.578 159.574C189.578 159.326 189.531 159.107 189.438 158.915C189.344 158.723 189.196 158.573 188.993 158.464C188.793 158.356 188.529 158.301 188.201 158.301H186.961V164H185.973ZM191.73 157.455H192.928L195.012 162.543H195.089L197.173 157.455H198.371V164H197.432V159.263H197.371L195.44 163.99H194.661L192.73 159.26H192.669V164H191.73V157.455Z" fill="#77838F"/>
<path d="M241.908 164.089C241.469 164.089 241.077 164.014 240.732 163.863C240.389 163.711 240.118 163.501 239.917 163.233C239.719 162.962 239.613 162.649 239.598 162.293H240.601C240.614 162.487 240.679 162.656 240.796 162.798C240.915 162.939 241.071 163.048 241.263 163.124C241.455 163.201 241.668 163.239 241.902 163.239C242.16 163.239 242.388 163.195 242.586 163.105C242.786 163.016 242.943 162.891 243.056 162.731C243.169 162.569 243.225 162.383 243.225 162.172C243.225 161.952 243.169 161.76 243.056 161.593C242.945 161.425 242.782 161.293 242.567 161.197C242.354 161.101 242.096 161.053 241.793 161.053H241.24V160.248H241.793C242.036 160.248 242.249 160.204 242.433 160.117C242.618 160.029 242.763 159.908 242.867 159.752C242.972 159.595 243.024 159.411 243.024 159.2C243.024 158.997 242.978 158.821 242.886 158.672C242.797 158.521 242.669 158.403 242.503 158.317C242.339 158.232 242.145 158.19 241.921 158.19C241.708 158.19 241.509 158.229 241.324 158.308C241.14 158.385 240.991 158.495 240.876 158.64C240.761 158.783 240.699 158.955 240.691 159.155H239.735C239.746 158.801 239.85 158.49 240.048 158.222C240.249 157.953 240.513 157.743 240.841 157.592C241.169 157.441 241.533 157.365 241.934 157.365C242.354 157.365 242.716 157.447 243.021 157.611C243.327 157.773 243.564 157.989 243.73 158.26C243.898 158.531 243.982 158.827 243.979 159.148C243.982 159.515 243.879 159.826 243.673 160.082C243.468 160.337 243.195 160.509 242.854 160.596V160.647C243.289 160.713 243.626 160.886 243.864 161.165C244.105 161.444 244.224 161.79 244.222 162.204C244.224 162.564 244.124 162.887 243.922 163.172C243.722 163.458 243.448 163.683 243.1 163.847C242.753 164.009 242.356 164.089 241.908 164.089ZM245.52 164V157.455H247.853C248.362 157.455 248.784 157.547 249.119 157.733C249.453 157.918 249.703 158.172 249.87 158.493C250.036 158.813 250.119 159.173 250.119 159.574C250.119 159.976 250.035 160.338 249.866 160.66C249.7 160.98 249.449 161.233 249.112 161.421C248.778 161.606 248.357 161.699 247.85 161.699H246.245V160.862H247.76C248.082 160.862 248.343 160.806 248.543 160.695C248.744 160.582 248.891 160.429 248.984 160.235C249.078 160.041 249.125 159.821 249.125 159.574C249.125 159.326 249.078 159.107 248.984 158.915C248.891 158.723 248.743 158.573 248.54 158.464C248.34 158.356 248.076 158.301 247.748 158.301H246.507V164H245.52ZM251.277 157.455H252.475L254.559 162.543H254.636L256.72 157.455H257.918V164H256.978V159.263H256.918L254.987 163.99H254.207L252.277 159.26H252.216V164H251.277V157.455Z" fill="#77838F"/>
<path d="M300.79 164.089C300.39 164.089 300.029 164.013 299.71 163.859C299.392 163.704 299.139 163.491 298.949 163.22C298.76 162.95 298.658 162.641 298.646 162.293H299.604C299.628 162.575 299.752 162.806 299.978 162.987C300.204 163.168 300.475 163.259 300.79 163.259C301.042 163.259 301.264 163.201 301.458 163.086C301.654 162.969 301.808 162.808 301.918 162.603C302.031 162.399 302.088 162.165 302.088 161.903C302.088 161.637 302.03 161.4 301.915 161.191C301.8 160.982 301.641 160.818 301.439 160.699C301.239 160.579 301.009 160.518 300.749 160.516C300.55 160.516 300.351 160.55 300.151 160.619C299.951 160.687 299.789 160.776 299.665 160.887L298.761 160.753L299.128 157.455H302.727V158.301H299.95L299.742 160.133H299.78C299.908 160.009 300.077 159.906 300.288 159.823C300.501 159.74 300.729 159.698 300.972 159.698C301.371 159.698 301.725 159.793 302.037 159.983C302.35 160.172 302.596 160.431 302.775 160.759C302.956 161.085 303.045 161.46 303.043 161.884C303.045 162.308 302.95 162.686 302.756 163.019C302.564 163.351 302.298 163.613 301.957 163.805C301.618 163.995 301.229 164.089 300.79 164.089ZM304.3 164V157.455H306.633C307.142 157.455 307.564 157.547 307.899 157.733C308.233 157.918 308.484 158.172 308.65 158.493C308.816 158.813 308.899 159.173 308.899 159.574C308.899 159.976 308.815 160.338 308.647 160.66C308.481 160.98 308.229 161.233 307.892 161.421C307.558 161.606 307.137 161.699 306.63 161.699H305.026V160.862H306.541C306.862 160.862 307.123 160.806 307.324 160.695C307.524 160.582 307.671 160.429 307.765 160.235C307.858 160.041 307.905 159.821 307.905 159.574C307.905 159.326 307.858 159.107 307.765 158.915C307.671 158.723 307.523 158.573 307.32 158.464C307.12 158.356 306.856 158.301 306.528 158.301H305.288V164H304.3ZM310.057 157.455H311.256L313.339 162.543H313.416L315.5 157.455H316.698V164H315.759V159.263H315.698L313.768 163.99H312.988L311.057 159.26H310.997V164H310.057V157.455Z" fill="#77838F"/>
<defs>
<filter id="filter0_d_100_2667" x="0" y="0" width="373" height="195" filterUnits="userSpaceOnUse" color-interpolation-filters="sRGB">
<feFlood flood-opacity="0" result="BackgroundImageFix"/>
<feColorMatrix in="SourceAlpha" type="matrix" values="0 0 0 0 0 0 0 0 0 0 0 0 0 0 0 0 0 0 127 0" result="hardAlpha"/>
<feOffset dy="3"/>
<feGaussianBlur stdDeviation="7.5"/>
<feComposite in2="hardAlpha" operator="out"/>
<feColorMatrix type="matrix" values="0 0 0 0 0 0 0 0 0 0 0 0 0 0 0 0 0 0 0.25 0"/>
<feBlend mode="normal" in2="BackgroundImageFix" result="effect1_dropShadow_100_2667"/>
<feBlend mode="normal" in="SourceGraphic" in2="effect1_dropShadow_100_2667" result="shape"/>
</filter>
</defs>
</svg>
