<svg width="375" height="188" viewBox="0 0 375 188" fill="none" xmlns="http://www.w3.org/2000/svg">
<g filter="url(#filter0_d_100_2669)">
<rect x="10" y="15" width="356" height="148" rx="20" fill="white"/>
<rect x="10.5" y="15.5" width="355" height="147" rx="19.5" stroke="#EFF0F6"/>
</g>
<path d="M45.2675 144.455H46.2519L46.2519 149.095C46.2519 149.515 46.1688 149.874 46.0026 150.172C45.8386 150.471 45.6074 150.699 45.3091 150.856C45.0108 151.012 44.6614 151.089 44.2608 151.089C43.8922 151.089 43.5609 151.022 43.2668 150.888C42.9749 150.754 42.7437 150.559 42.5733 150.303C42.405 150.045 42.3208 149.732 42.3208 149.364H43.302C43.302 149.545 43.3435 149.701 43.4266 149.833C43.5119 149.966 43.628 150.069 43.775 150.143C43.9241 150.216 44.0946 150.252 44.2864 150.252C44.4952 150.252 44.672 150.208 44.8169 150.121C44.9639 150.032 45.0758 149.901 45.1525 149.728C45.2292 149.555 45.2675 149.344 45.2675 149.095L45.2675 144.455ZM48.2422 151H47.1939L49.5494 144.455H50.6904L53.0459 151H51.9976L50.1471 145.643H50.0959L48.2422 151ZM48.418 148.437H51.8186L51.8186 149.268H48.418L48.418 148.437ZM59.2741 144.455L59.2741 151H58.3664L55.0394 146.2H54.9786L54.9786 151H53.9911L53.9911 144.455H54.9051L58.2354 149.261H58.2961L58.2961 144.455H59.2741Z" fill="#838383"/>
<path d="M123.342 151H122.294L124.65 144.455H125.79L128.146 151H127.098L125.247 145.643H125.196L123.342 151ZM123.518 148.437H126.919L126.919 149.268H123.518L123.518 148.437ZM129.091 151L129.091 144.455H131.424C131.934 144.455 132.355 144.547 132.69 144.733C133.024 144.918 133.275 145.172 133.441 145.493C133.607 145.813 133.69 146.173 133.69 146.574C133.69 146.976 133.606 147.338 133.438 147.66C133.272 147.98 133.02 148.233 132.684 148.421C132.349 148.606 131.928 148.699 131.421 148.699H129.817L129.817 147.862H131.332C131.653 147.862 131.914 147.806 132.115 147.695C132.315 147.582 132.462 147.429 132.556 147.235C132.649 147.041 132.696 146.821 132.696 146.574C132.696 146.326 132.649 146.107 132.556 145.915C132.462 145.723 132.314 145.573 132.111 145.464C131.911 145.356 131.647 145.301 131.319 145.301H130.079L130.079 151H129.091ZM134.848 151L134.848 144.455H137.181C137.688 144.455 138.109 144.542 138.444 144.717C138.78 144.891 139.032 145.133 139.198 145.442C139.364 145.749 139.447 146.104 139.447 146.506C139.447 146.907 139.363 147.26 139.195 147.564C139.028 147.867 138.777 148.102 138.44 148.271C138.106 148.439 137.685 148.523 137.178 148.523H135.411L135.411 147.673H137.088C137.408 147.673 137.668 147.627 137.868 147.536C138.071 147.444 138.219 147.311 138.312 147.136C138.406 146.961 138.453 146.751 138.453 146.506C138.453 146.259 138.405 146.045 138.309 145.864C138.216 145.683 138.067 145.544 137.865 145.449C137.665 145.35 137.402 145.301 137.076 145.301H135.836L135.836 151H134.848ZM138.079 148.047L139.696 151H138.571L136.986 148.047H138.079Z" fill="#838383"/>
<path d="M203.422 144.455H204.407L204.407 149.095C204.407 149.515 204.324 149.874 204.157 150.172C203.993 150.471 203.762 150.699 203.464 150.856C203.166 151.012 202.816 151.089 202.416 151.089C202.047 151.089 201.716 151.022 201.422 150.888C201.13 150.754 200.899 150.559 200.728 150.303C200.56 150.045 200.476 149.732 200.476 149.364H201.457C201.457 149.545 201.498 149.701 201.581 149.833C201.667 149.966 201.783 150.069 201.93 150.143C202.079 150.216 202.249 150.252 202.441 150.252C202.65 150.252 202.827 150.208 202.972 150.121C203.119 150.032 203.231 149.901 203.307 149.728C203.384 149.555 203.422 149.344 203.422 149.095L203.422 144.455ZM210.053 144.455H211.044L211.044 148.76C211.044 149.218 210.936 149.624 210.721 149.977C210.506 150.329 210.203 150.606 209.814 150.808C209.424 151.009 208.967 151.109 208.442 151.109C207.92 151.109 207.464 151.009 207.075 150.808C206.685 150.606 206.382 150.329 206.167 149.977C205.952 149.624 205.844 149.218 205.844 148.76L205.844 144.455H206.832L206.832 148.68C206.832 148.976 206.897 149.239 207.027 149.469C207.159 149.699 207.345 149.88 207.586 150.012C207.827 150.142 208.112 150.207 208.442 150.207C208.775 150.207 209.061 150.142 209.302 150.012C209.545 149.88 209.73 149.699 209.858 149.469C209.988 149.239 210.053 148.976 210.053 148.68L210.053 144.455ZM212.48 151L212.48 144.455H213.467L213.467 150.15H216.433L216.433 151H212.48Z" fill="#838383"/>
<path d="M285.706 147.727C285.706 148.426 285.578 149.027 285.323 149.53C285.067 150.031 284.716 150.416 284.271 150.687C283.828 150.955 283.324 151.089 282.759 151.089C282.193 151.089 281.687 150.955 281.241 150.687C280.798 150.416 280.449 150.029 280.193 149.527C279.937 149.024 279.809 148.424 279.809 147.727C279.809 147.028 279.937 146.429 280.193 145.928C280.449 145.425 280.798 145.039 281.241 144.771C281.687 144.5 282.193 144.365 282.759 144.365C283.324 144.365 283.828 144.5 284.271 144.771C284.716 145.039 285.067 145.425 285.323 145.928C285.578 146.429 285.706 147.028 285.706 147.727ZM284.728 147.727C284.728 147.195 284.642 146.746 284.469 146.382C284.299 146.015 284.064 145.738 283.766 145.551C283.47 145.361 283.134 145.266 282.759 145.266C282.382 145.266 282.046 145.361 281.749 145.551C281.453 145.738 281.219 146.015 281.046 146.382C280.876 146.746 280.791 147.195 280.791 147.727C280.791 148.26 280.876 148.71 281.046 149.076C281.219 149.44 281.453 149.717 281.749 149.907C282.046 150.094 282.382 150.188 282.759 150.188C283.134 150.188 283.47 150.094 283.766 149.907C284.064 149.717 284.299 149.44 284.469 149.076C284.642 148.71 284.728 148.26 284.728 147.727ZM292.374 146.583H291.377C291.338 146.37 291.267 146.183 291.163 146.021C291.058 145.859 290.93 145.721 290.779 145.608C290.628 145.495 290.458 145.41 290.271 145.353C290.085 145.295 289.888 145.266 289.68 145.266C289.302 145.266 288.965 145.361 288.666 145.551C288.37 145.74 288.136 146.018 287.963 146.385C287.793 146.751 287.708 147.199 287.708 147.727C287.708 148.26 287.793 148.71 287.963 149.076C288.136 149.442 288.371 149.719 288.67 149.907C288.968 150.094 289.303 150.188 289.676 150.188C289.883 150.188 290.079 150.161 290.264 150.105C290.452 150.048 290.621 149.963 290.773 149.853C290.924 149.742 291.052 149.607 291.156 149.447C291.263 149.285 291.336 149.099 291.377 148.891L292.374 148.894C292.321 149.216 292.217 149.512 292.064 149.782C291.913 150.051 291.718 150.283 291.479 150.479C291.242 150.673 290.972 150.823 290.667 150.93C290.362 151.036 290.03 151.089 289.67 151.089C289.103 151.089 288.598 150.955 288.155 150.687C287.712 150.416 287.362 150.029 287.107 149.527C286.853 149.024 286.726 148.424 286.726 147.727C286.726 147.028 286.854 146.429 287.11 145.928C287.366 145.425 287.715 145.039 288.158 144.771C288.601 144.5 289.105 144.365 289.67 144.365C290.017 144.365 290.341 144.415 290.642 144.515C290.944 144.613 291.216 144.758 291.457 144.95C291.697 145.14 291.897 145.372 292.054 145.647C292.212 145.919 292.318 146.232 292.374 146.583ZM293.233 145.305L293.233 144.455H298.298L298.298 145.305H296.256L296.256 151H295.272L295.272 145.305H293.233Z" fill="#838383"/>
<path d="M69.9266 151L69.9266 144.455H73.9856L73.9856 145.305H70.9142L70.9142 147.299H73.6947L73.6947 148.146H70.9142L70.9142 151H69.9266ZM75.2001 151L75.2001 144.455H79.3038L79.3038 145.305H76.1876L76.1876 147.299H79.0896L79.0896 148.146H76.1876L76.1876 150.15H79.3421L79.3421 151H75.2001ZM80.6229 151L80.6229 144.455H83.0199C83.4844 144.455 83.869 144.531 84.1737 144.685C84.4784 144.836 84.7064 145.042 84.8576 145.301C85.0089 145.559 85.0846 145.85 85.0846 146.174C85.0846 146.447 85.0345 146.677 84.9343 146.864C84.8342 147.05 84.7 147.199 84.5316 147.312C84.3655 147.423 84.1822 147.504 83.9819 147.555L83.9819 147.619C84.1993 147.629 84.4113 147.7 84.6179 147.83C84.8267 147.957 84.9993 148.14 85.1357 148.376C85.2721 148.613 85.3402 148.9 85.3402 149.239C85.3402 149.574 85.2614 149.874 85.1037 150.14C84.9482 150.404 84.7074 150.614 84.3814 150.77C84.0554 150.923 83.6389 151 83.1318 151H80.6229ZM81.6105 150.153H83.0359C83.5089 150.153 83.8477 150.061 84.0522 149.878C84.2568 149.695 84.3591 149.466 84.3591 149.191C84.3591 148.984 84.3069 148.795 84.2025 148.622C84.0981 148.45 83.9489 148.312 83.755 148.21C83.5633 148.108 83.3353 148.056 83.0711 148.056H81.6105L81.6105 150.153ZM81.6105 147.286H82.9336C83.1552 147.286 83.3544 147.244 83.5313 147.158C83.7103 147.073 83.852 146.954 83.9564 146.8C84.0629 146.645 84.1162 146.462 84.1162 146.251C84.1162 145.98 84.0214 145.753 83.8317 145.57C83.6421 145.387 83.3513 145.295 82.9592 145.295H81.6105L81.6105 147.286Z" fill="#838383"/>
<path d="M149.283 144.455H150.482L152.565 149.543H152.642L154.726 144.455H155.924L155.924 151H154.985L154.985 146.263H154.924L152.994 150.99H152.214L150.283 146.26H150.223L150.223 151H149.283L149.283 144.455ZM157.913 151H156.865L159.22 144.455H160.361L162.717 151H161.668L159.818 145.643H159.767L157.913 151ZM158.089 148.437H161.489L161.489 149.268H158.089L158.089 148.437ZM162.489 144.455H163.611L165.321 147.43H165.391L167.101 144.455H168.223L165.848 148.43L165.848 151H164.864L164.864 148.43L162.489 144.455Z" fill="#838383"/>
<path d="M314.694 144.455L314.694 151H313.786L310.459 146.2H310.398L310.398 151H309.411L309.411 144.455H310.325L313.655 149.261H313.716L313.716 144.455H314.694ZM321.82 147.727C321.82 148.426 321.692 149.027 321.436 149.53C321.181 150.031 320.83 150.416 320.385 150.687C319.942 150.955 319.438 151.089 318.873 151.089C318.306 151.089 317.8 150.955 317.355 150.687C316.912 150.416 316.562 150.029 316.307 149.527C316.051 149.024 315.923 148.424 315.923 147.727C315.923 147.028 316.051 146.429 316.307 145.928C316.562 145.425 316.912 145.039 317.355 144.771C317.8 144.5 318.306 144.365 318.873 144.365C319.438 144.365 319.942 144.5 320.385 144.771C320.83 145.039 321.181 145.425 321.436 145.928C321.692 146.429 321.82 147.028 321.82 147.727ZM320.842 147.727C320.842 147.195 320.756 146.746 320.583 146.382C320.413 146.015 320.178 145.738 319.88 145.551C319.584 145.361 319.248 145.266 318.873 145.266C318.496 145.266 318.159 145.361 317.863 145.551C317.567 145.738 317.333 146.015 317.16 146.382C316.99 146.746 316.904 147.195 316.904 147.727C316.904 148.26 316.99 148.71 317.16 149.076C317.333 149.44 317.567 149.717 317.863 149.907C318.159 150.094 318.496 150.188 318.873 150.188C319.248 150.188 319.584 150.094 319.88 149.907C320.178 149.717 320.413 149.44 320.583 149.076C320.756 148.71 320.842 148.26 320.842 147.727ZM323.298 144.455L325.12 149.786H325.193L327.015 144.455H328.082L325.727 151H324.586L322.231 144.455H323.298Z" fill="#838383"/>
<path d="M179.101 144.455H180.085L180.085 149.095C180.085 149.515 180.002 149.874 179.836 150.172C179.672 150.471 179.44 150.699 179.142 150.856C178.844 151.012 178.494 151.089 178.094 151.089C177.725 151.089 177.394 151.022 177.1 150.888C176.808 150.754 176.577 150.559 176.406 150.303C176.238 150.045 176.154 149.732 176.154 149.364H177.135C177.135 149.545 177.177 149.701 177.26 149.833C177.345 149.966 177.461 150.069 177.608 150.143C177.757 150.216 177.928 150.252 178.119 150.252C178.328 150.252 178.505 150.208 178.65 150.121C178.797 150.032 178.909 149.901 178.985 149.728C179.062 149.555 179.101 149.344 179.101 149.095L179.101 144.455ZM185.731 144.455H186.722L186.722 148.76C186.722 149.218 186.615 149.624 186.399 149.977C186.184 150.329 185.882 150.606 185.492 150.808C185.102 151.009 184.645 151.109 184.121 151.109C183.599 151.109 183.143 151.009 182.753 150.808C182.363 150.606 182.06 150.329 181.845 149.977C181.63 149.624 181.522 149.218 181.522 148.76L181.522 144.455H182.51L182.51 148.68C182.51 148.976 182.575 149.239 182.705 149.469C182.837 149.699 183.023 149.88 183.264 150.012C183.505 150.142 183.79 150.207 184.121 150.207C184.453 150.207 184.74 150.142 184.98 150.012C185.223 149.88 185.409 149.699 185.537 149.469C185.667 149.239 185.731 148.976 185.731 148.68L185.731 144.455ZM193.441 144.455L193.441 151H192.533L189.206 146.2H189.146L189.146 151H188.158L188.158 144.455H189.072L192.402 149.261H192.463L192.463 144.455H193.441Z" fill="#838383"/>
<path d="M96.1293 144.455H97.3278L99.4116 149.543H99.4883L101.572 144.455H102.771L102.771 151H101.831L101.831 146.263H101.77L99.8398 150.99H99.06L97.1296 146.26H97.0689L97.0689 151H96.1293L96.1293 144.455ZM104.759 151H103.711L106.066 144.455H107.207L109.563 151H108.515L106.664 145.643H106.613L104.759 151ZM104.935 148.437H108.336L108.336 149.268H104.935L104.935 148.437ZM110.508 151L110.508 144.455H112.841C113.348 144.455 113.769 144.542 114.104 144.717C114.44 144.891 114.692 145.133 114.858 145.442C115.024 145.749 115.107 146.104 115.107 146.506C115.107 146.907 115.023 147.26 114.855 147.564C114.689 147.867 114.437 148.102 114.1 148.271C113.766 148.439 113.345 148.523 112.838 148.523H111.071L111.071 147.673H112.749C113.068 147.673 113.328 147.627 113.528 147.536C113.731 147.444 113.879 147.311 113.973 147.136C114.066 146.961 114.113 146.751 114.113 146.506C114.113 146.259 114.065 146.045 113.969 145.864C113.876 145.683 113.728 145.544 113.525 145.449C113.325 145.35 113.062 145.301 112.736 145.301H111.496L111.496 151H110.508ZM113.739 148.047L115.357 151H114.232L112.646 148.047H113.739Z" fill="#838383"/>
<path d="M258.803 146.174C258.769 145.871 258.629 145.637 258.381 145.471C258.134 145.303 257.823 145.218 257.448 145.218C257.18 145.218 256.947 145.261 256.751 145.346C256.555 145.429 256.403 145.544 256.294 145.691C256.188 145.836 256.135 146.001 256.135 146.187C256.135 146.342 256.171 146.477 256.243 146.589C256.318 146.702 256.415 146.797 256.534 146.874C256.655 146.949 256.785 147.011 256.924 147.062C257.062 147.112 257.196 147.152 257.323 147.184L257.963 147.35C258.171 147.401 258.386 147.471 258.605 147.558C258.825 147.645 259.028 147.76 259.216 147.903C259.403 148.046 259.554 148.223 259.669 148.434C259.787 148.645 259.845 148.897 259.845 149.191C259.845 149.562 259.749 149.891 259.557 150.179C259.368 150.466 259.092 150.693 258.73 150.859C258.37 151.026 257.934 151.109 257.423 151.109C256.932 151.109 256.508 151.031 256.151 150.875C255.793 150.72 255.512 150.499 255.31 150.214C255.108 149.926 254.996 149.585 254.974 149.191H255.965C255.984 149.428 256.061 149.625 256.195 149.782C256.332 149.938 256.505 150.054 256.716 150.131C256.929 150.205 257.163 150.243 257.416 150.243C257.695 150.243 257.943 150.199 258.161 150.112C258.38 150.022 258.553 149.898 258.679 149.741C258.804 149.581 258.867 149.395 258.867 149.181C258.867 148.988 258.812 148.829 258.701 148.705C258.592 148.582 258.444 148.479 258.257 148.398C258.071 148.317 257.861 148.246 257.627 148.184L256.854 147.973C256.33 147.831 255.914 147.621 255.607 147.344C255.303 147.067 255.15 146.7 255.15 146.244C255.15 145.867 255.252 145.538 255.457 145.257C255.662 144.975 255.939 144.757 256.288 144.602C256.637 144.444 257.032 144.365 257.47 144.365C257.914 144.365 258.305 144.443 258.643 144.598C258.984 144.754 259.253 144.968 259.449 145.241C259.645 145.511 259.747 145.822 259.756 146.174H258.803ZM261.025 151L261.025 144.455H265.129L265.129 145.305H262.013L262.013 147.299H264.915L264.915 148.146H262.013L262.013 150.15H265.167L265.167 151H261.025ZM266.448 151L266.448 144.455H268.781C269.29 144.455 269.712 144.547 270.047 144.733C270.381 144.918 270.632 145.172 270.798 145.493C270.964 145.813 271.047 146.173 271.047 146.574C271.047 146.976 270.963 147.338 270.795 147.66C270.629 147.98 270.377 148.233 270.04 148.421C269.706 148.606 269.285 148.699 268.778 148.699H267.174L267.174 147.862H268.689C269.01 147.862 269.271 147.806 269.472 147.695C269.672 147.582 269.819 147.429 269.913 147.235C270.006 147.041 270.053 146.821 270.053 146.574C270.053 146.326 270.006 146.107 269.913 145.915C269.819 145.723 269.671 145.573 269.468 145.464C269.268 145.356 269.004 145.301 268.676 145.301H267.436L267.436 151H266.448Z" fill="#838383"/>
<path d="M227.433 151H226.384L228.74 144.455H229.881L232.236 151H231.188L229.337 145.643H229.286L227.433 151ZM227.608 148.437H231.009L231.009 149.268H227.608L227.608 148.437ZM237.391 144.455H238.381L238.381 148.76C238.381 149.218 238.274 149.624 238.059 149.977C237.843 150.329 237.541 150.606 237.151 150.808C236.761 151.009 236.304 151.109 235.78 151.109C235.258 151.109 234.802 151.009 234.412 150.808C234.022 150.606 233.72 150.329 233.504 149.977C233.289 149.624 233.182 149.218 233.182 148.76L233.182 144.455H234.169L234.169 148.68C234.169 148.976 234.234 149.239 234.364 149.469C234.496 149.699 234.683 149.88 234.923 150.012C235.164 150.142 235.45 150.207 235.78 150.207C236.112 150.207 236.399 150.142 236.64 150.012C236.883 149.88 237.068 149.699 237.196 149.469C237.326 149.239 237.391 148.976 237.391 148.68L237.391 144.455ZM244.247 146.522C244.185 146.328 244.102 146.155 243.998 146.001C243.895 145.846 243.773 145.714 243.63 145.605C243.487 145.494 243.324 145.41 243.141 145.353C242.96 145.295 242.761 145.266 242.543 145.266C242.175 145.266 241.842 145.361 241.546 145.551C241.25 145.74 241.016 146.018 240.843 146.385C240.673 146.749 240.587 147.196 240.587 147.724C240.587 148.255 240.674 148.703 240.846 149.07C241.019 149.436 241.255 149.714 241.556 149.904C241.856 150.093 242.198 150.188 242.582 150.188C242.938 150.188 243.248 150.116 243.512 149.971C243.778 149.826 243.984 149.621 244.129 149.357C244.276 149.091 244.349 148.778 244.349 148.418L244.605 148.466H242.732L242.732 147.651H245.305L245.305 148.395C245.305 148.945 245.188 149.422 244.953 149.827C244.721 150.23 244.399 150.541 243.988 150.76C243.579 150.98 243.11 151.089 242.582 151.089C241.989 151.089 241.47 150.953 241.022 150.68C240.577 150.408 240.23 150.021 239.98 149.52C239.731 149.017 239.606 148.421 239.606 147.73C239.606 147.208 239.679 146.74 239.824 146.324C239.969 145.909 240.172 145.556 240.434 145.266C240.698 144.974 241.008 144.752 241.364 144.598C241.722 144.443 242.113 144.365 242.537 144.365C242.891 144.365 243.22 144.417 243.525 144.522C243.831 144.626 244.104 144.774 244.343 144.966C244.584 145.158 244.783 145.386 244.94 145.65C245.098 145.912 245.205 146.203 245.26 146.522H244.247Z" fill="#838383"/>
<path d="M337.07 151H334.951L334.951 144.455H337.137C337.778 144.455 338.329 144.586 338.789 144.848C339.25 145.108 339.602 145.482 339.847 145.969C340.095 146.455 340.218 147.038 340.218 147.718C340.218 148.4 340.093 148.985 339.844 149.475C339.597 149.966 339.239 150.343 338.77 150.607C338.302 150.869 337.735 151 337.07 151ZM335.939 150.137H337.016C337.514 150.137 337.929 150.043 338.259 149.856C338.589 149.666 338.836 149.392 339 149.034C339.164 148.674 339.246 148.235 339.246 147.718C339.246 147.204 339.164 146.768 339 146.411C338.838 146.053 338.597 145.781 338.275 145.596C337.953 145.41 337.554 145.317 337.076 145.317H335.939L335.939 150.137ZM341.446 151L341.446 144.455H345.55L345.55 145.305H342.434L342.434 147.299H345.336L345.336 148.146H342.434L342.434 150.15H345.588L345.588 151H341.446ZM352.305 146.583H351.308C351.27 146.37 351.199 146.183 351.094 146.021C350.99 145.859 350.862 145.721 350.711 145.608C350.559 145.495 350.39 145.41 350.202 145.353C350.017 145.295 349.82 145.266 349.611 145.266C349.234 145.266 348.896 145.361 348.598 145.551C348.302 145.74 348.068 146.018 347.895 146.385C347.724 146.751 347.639 147.199 347.639 147.727C347.639 148.26 347.724 148.71 347.895 149.076C348.068 149.442 348.303 149.719 348.601 149.907C348.9 150.094 349.235 150.188 349.608 150.188C349.815 150.188 350.011 150.161 350.196 150.105C350.384 150.048 350.553 149.963 350.704 149.853C350.856 149.742 350.983 149.607 351.088 149.447C351.194 149.285 351.268 149.099 351.308 148.891L352.305 148.894C352.252 149.216 352.149 149.512 351.995 149.782C351.844 150.051 351.649 150.283 351.411 150.479C351.174 150.673 350.903 150.823 350.599 150.93C350.294 151.036 349.962 151.089 349.602 151.089C349.035 151.089 348.53 150.955 348.087 150.687C347.644 150.416 347.294 150.029 347.038 149.527C346.785 149.024 346.658 148.424 346.658 147.727C346.658 147.028 346.786 146.429 347.042 145.928C347.297 145.425 347.647 145.039 348.09 144.771C348.533 144.5 349.037 144.365 349.602 144.365C349.949 144.365 350.273 144.415 350.573 144.515C350.876 144.613 351.147 144.758 351.388 144.95C351.629 145.14 351.828 145.372 351.986 145.647C352.144 145.919 352.25 146.232 352.305 146.583Z" fill="#838383"/>
<path d="M49 28C49 26.3431 50.3431 25 52 25C53.6569 25 55 26.3431 55 28L55 134C55 135.657 53.6569 137 52 137C50.3431 137 49 135.657 49 134L49 28Z" fill="#F2F7FF"/>
<path d="M76 28C76 26.3431 77.3431 25 79 25C80.6569 25 82 26.3431 82 28L82 134C82 135.657 80.6569 137 79 137C77.3431 137 76 135.657 76 134L76 28Z" fill="#F2F7FF"/>
<path d="M76 123C76 121.343 77.3431 120 79 120C80.6569 120 82 121.343 82 123L82 134C82 135.657 80.6569 137 79 137C77.3431 137 76 135.657 76 134L76 123Z" fill="url(#paint0_linear_100_2669)"/>
<path d="M102 28C102 26.3431 103.343 25 105 25C106.657 25 108 26.3431 108 28L108 134C108 135.657 106.657 137 105 137C103.343 137 102 135.657 102 134L102 28Z" fill="#F2F7FF"/>
<path d="M102 116C102 114.343 103.343 113 105 113C106.657 113 108 114.343 108 116L108 134C108 135.657 106.657 137 105 137C103.343 137 102 135.657 102 134L102 116Z" fill="url(#paint1_linear_100_2669)"/>
<path d="M127 28C127 26.3431 128.343 25 130 25C131.657 25 133 26.3431 133 28L133 134C133 135.657 131.657 137 130 137C128.343 137 127 135.657 127 134L127 28Z" fill="#F2F7FF"/>
<path d="M127 72C127 70.3431 128.343 69 130 69C131.657 69 133 70.3431 133 72L133 134C133 135.657 131.657 137 130 137C128.343 137 127 135.657 127 134L127 72Z" fill="url(#paint2_linear_100_2669)"/>
<path d="M154 28C154 26.3431 155.343 25 157 25C158.657 25 160 26.3431 160 28L160 134C160 135.657 158.657 137 157 137C155.343 137 154 135.657 154 134L154 28Z" fill="#F2F7FF"/>
<path d="M154 63C154 61.3431 155.343 60 157 60C158.657 60 160 61.3431 160 63L160 134C160 135.657 158.657 137 157 137C155.343 137 154 135.657 154 134L154 63Z" fill="url(#paint3_linear_100_2669)"/>
<path d="M181 27.5C181 26.1193 182.119 25 183.5 25C184.881 25 186 26.1193 186 27.5L186 80.5L186 134.5C186 135.881 184.881 137 183.5 137C182.119 137 181 135.881 181 134.5L181 27.5Z" fill="#F2F7FF"/>
<path d="M181 80.5C181 79.1193 182.119 78 183.5 78C184.881 78 186 79.1193 186 80.5L186 134.5C186 135.881 184.881 137 183.5 137C182.119 137 181 135.881 181 134.5L181 80.5Z" fill="url(#paint4_linear_100_2669)"/>
<path d="M207 28C207 26.3431 208.343 25 210 25C211.657 25 213 26.3431 213 28L213 134C213 135.657 211.657 137 210 137C208.343 137 207 135.657 207 134L207 28Z" fill="#F2F7FF"/>
<path d="M207.123 71.7939C207.109 70.0357 208.523 68.5943 210.281 68.5745C212.039 68.5546 213.476 69.9638 213.49 71.722L213.987 133.794C214.001 135.552 212.587 136.994 210.829 137.014C209.071 137.034 207.634 135.624 207.62 133.866L207.123 71.7939Z" fill="url(#paint5_linear_100_2669)"/>
<path d="M232 28C232 26.3431 233.343 25 235 25C236.657 25 238 26.3431 238 28L238 134C238 135.657 236.657 137 235 137C233.343 137 232 135.657 232 134L232 28Z" fill="#F2F7FF"/>
<path d="M232 106C232 104.343 233.343 103 235 103C236.657 103 238 104.343 238 106L238 134C238 135.657 236.657 137 235 137C233.343 137 232 135.657 232 134L232 106Z" fill="url(#paint6_linear_100_2669)"/>
<path d="M258 28C258 26.3431 259.343 25 261 25C262.657 25 264 26.3431 264 28L264 134C264 135.657 262.657 137 261 137C259.343 137 258 135.657 258 134L258 28Z" fill="#F2F7FF"/>
<path d="M258 38C258 36.3431 259.343 35 261 35C262.657 35 264 36.3431 264 38L264 134C264 135.657 262.657 137 261 137C259.343 137 258 135.657 258 134L258 38Z" fill="url(#paint7_linear_100_2669)"/>
<path d="M287 28C287 26.3431 288.343 25 290 25C291.657 25 293 26.3431 293 28L293 134C293 135.657 291.657 137 290 137C288.343 137 287 135.657 287 134L287 28Z" fill="#F2F7FF"/>
<path d="M287 47C287 45.3431 288.343 44 290 44C291.657 44 293 45.3431 293 47L293 134C293 135.657 291.657 137 290 137C288.343 137 287 135.657 287 134L287 47Z" fill="url(#paint8_linear_100_2669)"/>
<path d="M311 28C311 26.3431 312.343 25 314 25C315.657 25 317 26.3431 317 28L317 134C317 135.657 315.657 137 314 137C312.343 137 311 135.657 311 134L311 28Z" fill="#F2F7FF"/>
<path d="M311 38C311 36.3431 312.343 35 314 35C315.657 35 317 36.3431 317 38L317 134C317 135.657 315.657 137 314 137C312.343 137 311 135.657 311 134L311 38Z" fill="url(#paint9_linear_100_2669)"/>
<path d="M338 28C338 26.3431 339.343 25 341 25C342.657 25 344 26.3431 344 28L344 134C344 135.657 342.657 137 341 137C339.343 137 338 135.657 338 134L338 28Z" fill="#F2F7FF"/>
<path d="M338 93C338 91.3431 339.343 90 341 90C342.657 90 344 91.3431 344 93L344 134C344 135.657 342.657 137 341 137C339.343 137 338 135.657 338 134L338 93Z" fill="url(#paint10_linear_100_2669)"/>
<path d="M25.8411 28.4545V35H24.6554V29.6083H24.617L23.0861 30.5863V29.4996L24.7129 28.4545H25.8411ZM29.9224 35.1246C29.3961 35.1246 28.9444 34.9915 28.5673 34.7251C28.1923 34.4567 27.9036 34.07 27.7012 33.565C27.5009 33.0579 27.4008 32.4474 27.4008 31.7337C27.4029 31.0199 27.5041 30.4126 27.7044 29.9119C27.9068 29.4091 28.1955 29.0256 28.5705 28.7614C28.9476 28.4972 29.3983 28.3651 29.9224 28.3651C30.4466 28.3651 30.8972 28.4972 31.2743 28.7614C31.6515 29.0256 31.9402 29.4091 32.1405 29.9119C32.3429 30.4148 32.4441 31.022 32.4441 31.7337C32.4441 32.4496 32.3429 33.0611 32.1405 33.5682C31.9402 34.0732 31.6515 34.4588 31.2743 34.7251C30.8993 34.9915 30.4487 35.1246 29.9224 35.1246ZM29.9224 34.1243C30.3315 34.1243 30.6543 33.9229 30.8908 33.5202C31.1294 33.1154 31.2488 32.5199 31.2488 31.7337C31.2488 31.2138 31.1944 30.777 31.0858 30.4233C30.9771 30.0696 30.8237 29.8033 30.6255 29.6243C30.4274 29.4432 30.193 29.3526 29.9224 29.3526C29.5155 29.3526 29.1937 29.555 28.9572 29.9599C28.7207 30.3626 28.6014 30.9538 28.5993 31.7337C28.5971 32.2557 28.6493 32.6946 28.7559 33.0504C28.8645 33.4062 29.0179 33.6747 29.2161 33.8558C29.4143 34.0348 29.6497 34.1243 29.9224 34.1243ZM35.9253 35.1246C35.3991 35.1246 34.9474 34.9915 34.5702 34.7251C34.1952 34.4567 33.9065 34.07 33.7041 33.565C33.5038 33.0579 33.4037 32.4474 33.4037 31.7337C33.4058 31.0199 33.507 30.4126 33.7073 29.9119C33.9097 29.4091 34.1984 29.0256 34.5734 28.7614C34.9506 28.4972 35.4012 28.3651 35.9253 28.3651C36.4495 28.3651 36.9001 28.4972 37.2773 28.7614C37.6544 29.0256 37.9431 29.4091 38.1434 29.9119C38.3458 30.4148 38.447 31.022 38.447 31.7337C38.447 32.4496 38.3458 33.0611 38.1434 33.5682C37.9431 34.0732 37.6544 34.4588 37.2773 34.7251C36.9023 34.9915 36.4516 35.1246 35.9253 35.1246ZM35.9253 34.1243C36.3344 34.1243 36.6572 33.9229 36.8937 33.5202C37.1324 33.1154 37.2517 32.5199 37.2517 31.7337C37.2517 31.2138 37.1974 30.777 37.0887 30.4233C36.98 30.0696 36.8266 29.8033 36.6285 29.6243C36.4303 29.4432 36.1959 29.3526 35.9253 29.3526C35.5184 29.3526 35.1967 29.555 34.9601 29.9599C34.7236 30.3626 34.6043 30.9538 34.6022 31.7337C34.6001 32.2557 34.6523 32.6946 34.7588 33.0504C34.8675 33.4062 35.0209 33.6747 35.219 33.8558C35.4172 34.0348 35.6526 34.1243 35.9253 34.1243Z" fill="black"/>
<path d="M30.1074 84.0895C29.6813 84.0895 29.2999 84.0096 28.9632 83.8498C28.6266 83.6879 28.3592 83.4663 28.161 83.185C27.965 82.9038 27.8606 82.582 27.8478 82.2198H28.9984C29.0197 82.4883 29.1358 82.7077 29.3468 82.8782C29.5577 83.0465 29.8113 83.1307 30.1074 83.1307C30.3397 83.1307 30.5463 83.0774 30.7274 82.9709C30.9086 82.8643 31.0513 82.7163 31.1557 82.5266C31.2601 82.337 31.3113 82.1207 31.3091 81.8778C31.3113 81.6307 31.259 81.4112 31.1525 81.2195C31.046 81.0277 30.9 80.8775 30.7147 80.7688C30.5293 80.658 30.3162 80.6026 30.0755 80.6026C29.8794 80.6005 29.6866 80.6367 29.497 80.7113C29.3073 80.7859 29.1571 80.8839 29.0463 81.0053L27.9757 80.8295L28.3176 77.4545H32.1145V78.4453H29.2988L29.1103 80.1808H29.1486C29.2701 80.038 29.4416 79.9197 29.6632 79.826C29.8848 79.7301 30.1277 79.6822 30.3919 79.6822C30.7882 79.6822 31.1419 79.7759 31.4529 79.9634C31.764 80.1488 32.009 80.4045 32.188 80.7305C32.367 81.0565 32.4565 81.4293 32.4565 81.8491C32.4565 82.2816 32.3563 82.6673 32.1561 83.006C31.9579 83.3427 31.682 83.608 31.3283 83.8018C30.9767 83.9936 30.5698 84.0895 30.1074 84.0895ZM35.9465 84.1246C35.4203 84.1246 34.9686 83.9915 34.5914 83.7251C34.2164 83.4567 33.9277 83.07 33.7253 82.565C33.525 82.0579 33.4249 81.4474 33.4249 80.7337C33.427 80.0199 33.5282 79.4126 33.7285 78.9119C33.9309 78.4091 34.2196 78.0256 34.5946 77.7614C34.9718 77.4972 35.4224 77.3651 35.9465 77.3651C36.4707 77.3651 36.9213 77.4972 37.2985 77.7614C37.6756 78.0256 37.9643 78.4091 38.1646 78.9119C38.367 79.4148 38.4682 80.022 38.4682 80.7337C38.4682 81.4496 38.367 82.0611 38.1646 82.5682C37.9643 83.0732 37.6756 83.4588 37.2985 83.7251C36.9235 83.9915 36.4728 84.1246 35.9465 84.1246ZM35.9465 83.1243C36.3556 83.1243 36.6784 82.9229 36.9149 82.5202C37.1536 82.1154 37.2729 81.5199 37.2729 80.7337C37.2729 80.2138 37.2186 79.777 37.1099 79.4233C37.0012 79.0696 36.8478 78.8033 36.6497 78.6243C36.4515 78.4432 36.2171 78.3526 35.9465 78.3526C35.5396 78.3526 35.2179 78.555 34.9813 78.9599C34.7448 79.3626 34.6255 79.9538 34.6234 80.7337C34.6213 81.2557 34.6735 81.6946 34.78 82.0504C34.8887 82.4062 35.0421 82.6747 35.2402 82.8558C35.4384 83.0348 35.6738 83.1243 35.9465 83.1243Z" fill="black"/>
<path d="M34.169 136.969C33.6427 136.969 33.191 136.836 32.8138 136.57C32.4388 136.301 32.1501 135.915 31.9477 135.41C31.7474 134.903 31.6473 134.292 31.6473 133.578C31.6494 132.865 31.7506 132.257 31.9509 131.757C32.1533 131.254 32.442 130.87 32.817 130.606C33.1942 130.342 33.6448 130.21 34.169 130.21C34.6931 130.21 35.1437 130.342 35.5209 130.606C35.898 130.87 36.1867 131.254 36.387 131.757C36.5894 132.26 36.6906 132.867 36.6906 133.578C36.6906 134.294 36.5894 134.906 36.387 135.413C36.1867 135.918 35.898 136.304 35.5209 136.57C35.1459 136.836 34.6952 136.969 34.169 136.969ZM34.169 135.969C34.5781 135.969 34.9008 135.768 35.1374 135.365C35.376 134.96 35.4953 134.365 35.4953 133.578C35.4953 133.059 35.441 132.622 35.3323 132.268C35.2236 131.914 35.0702 131.648 34.8721 131.469C34.6739 131.288 34.4396 131.197 34.169 131.197C33.762 131.197 33.4403 131.4 33.2038 131.805C32.9673 132.207 32.8479 132.799 32.8458 133.578C32.8437 134.1 32.8959 134.539 33.0024 134.895C33.1111 135.251 33.2645 135.52 33.4626 135.701C33.6608 135.88 33.8962 135.969 34.169 135.969Z" fill="black"/>
<defs>
<filter id="filter0_d_100_2669" x="-10" y="0" width="396" height="188" filterUnits="userSpaceOnUse" color-interpolation-filters="sRGB">
<feFlood flood-opacity="0" result="BackgroundImageFix"/>
<feColorMatrix in="SourceAlpha" type="matrix" values="0 0 0 0 0 0 0 0 0 0 0 0 0 0 0 0 0 0 127 0" result="hardAlpha"/>
<feOffset dy="5"/>
<feGaussianBlur stdDeviation="10"/>
<feComposite in2="hardAlpha" operator="out"/>
<feColorMatrix type="matrix" values="0 0 0 0 0 0 0 0 0 0 0 0 0 0 0 0 0 0 0.05 0"/>
<feBlend mode="normal" in2="BackgroundImageFix" result="effect1_dropShadow_100_2669"/>
<feBlend mode="normal" in="SourceGraphic" in2="effect1_dropShadow_100_2669" result="shape"/>
</filter>
<linearGradient id="paint0_linear_100_2669" x1="79" y1="120" x2="79" y2="137" gradientUnits="userSpaceOnUse">
<stop stop-color="#41C7A1"/>
<stop offset="1" stop-color="#20614E"/>
</linearGradient>
<linearGradient id="paint1_linear_100_2669" x1="105" y1="113" x2="105" y2="137" gradientUnits="userSpaceOnUse">
<stop stop-color="#41C7A1"/>
<stop offset="1" stop-color="#20614E"/>
</linearGradient>
<linearGradient id="paint2_linear_100_2669" x1="130" y1="69" x2="130" y2="137" gradientUnits="userSpaceOnUse">
<stop stop-color="#41C7A1"/>
<stop offset="1" stop-color="#20614E"/>
</linearGradient>
<linearGradient id="paint3_linear_100_2669" x1="157" y1="60" x2="157" y2="137" gradientUnits="userSpaceOnUse">
<stop stop-color="#41C7A1"/>
<stop offset="1" stop-color="#20614E"/>
</linearGradient>
<linearGradient id="paint4_linear_100_2669" x1="183.5" y1="78" x2="183.5" y2="137" gradientUnits="userSpaceOnUse">
<stop stop-color="#41C7A1"/>
<stop offset="1" stop-color="#20614E"/>
</linearGradient>
<linearGradient id="paint5_linear_100_2669" x1="210.281" y1="68.5745" x2="211.054" y2="137.011" gradientUnits="userSpaceOnUse">
<stop stop-color="#41C7A1"/>
<stop offset="1" stop-color="#20614E"/>
</linearGradient>
<linearGradient id="paint6_linear_100_2669" x1="235" y1="103" x2="235" y2="137" gradientUnits="userSpaceOnUse">
<stop stop-color="#41C7A1"/>
<stop offset="1" stop-color="#20614E"/>
</linearGradient>
<linearGradient id="paint7_linear_100_2669" x1="261" y1="35" x2="261" y2="137" gradientUnits="userSpaceOnUse">
<stop offset="0.158654" stop-color="#41C7A1"/>
<stop offset="1" stop-color="#20614E"/>
</linearGradient>
<linearGradient id="paint8_linear_100_2669" x1="290" y1="44" x2="290" y2="137" gradientUnits="userSpaceOnUse">
<stop stop-color="#41C7A1"/>
<stop offset="1" stop-color="#20614E"/>
</linearGradient>
<linearGradient id="paint9_linear_100_2669" x1="314" y1="35" x2="314" y2="137" gradientUnits="userSpaceOnUse">
<stop stop-color="#41C7A1"/>
<stop offset="1" stop-color="#20614E"/>
</linearGradient>
<linearGradient id="paint10_linear_100_2669" x1="341" y1="90" x2="341" y2="137" gradientUnits="userSpaceOnUse">
<stop stop-color="#41C7A1"/>
<stop offset="1" stop-color="#20614E"/>
</linearGradient>
</defs>
</svg>
