<svg width="374" height="56" viewBox="0 0 374 56" fill="none" xmlns="http://www.w3.org/2000/svg">
<path d="M-1 22C-1 9.84974 8.84974 0 21 0H92.5H140C140 0 144.5 0 153 0C163.148 0 162 0 187.5 0C214.5 0 209.735 -5.64924e-06 219.5 0C228 4.91738e-06 232.5 0 232.5 0H281.5H352C364.15 0 374 9.84974 374 22V56H-1V22Z" fill="#5AEEC4" fill-opacity="0.42"/>
<path d="M189.83 21.01L183.28 15.77C182 14.75 180 14.74 178.73 15.76L172.18 21.01C171.24 21.76 170.67 23.26 170.87 24.44L172.13 31.98C172.42 33.67 173.99 35 175.7 35H186.3C187.99 35 189.59 33.64 189.88 31.97L191.14 24.43C191.32 23.26 190.75 21.76 189.83 21.01ZM181.75 31C181.75 31.41 181.41 31.75 181 31.75C180.59 31.75 180.25 31.41 180.25 31V28C180.25 27.59 180.59 27.25 181 27.25C181.41 27.25 181.75 27.59 181.75 28V31Z" fill="#41C7A1"/>
<path d="M110.75 18.56V17C110.75 16.59 110.41 16.25 110 16.25C109.59 16.25 109.25 16.59 109.25 17V18.5H102.75V17C102.75 16.59 102.41 16.25 102 16.25C101.59 16.25 101.25 16.59 101.25 17V18.56C98.55 18.81 97.24 20.42 97.04 22.81C97.02 23.1 97.26 23.34 97.54 23.34H114.46C114.75 23.34 114.99 23.09 114.96 22.81C114.76 20.42 113.45 18.81 110.75 18.56Z" fill="#41C7A1"/>
<path opacity="0.4" d="M114 24.84C114.55 24.84 115 25.29 115 25.84V32C115 35 113.5 37 110 37H102C98.5 37 97 35 97 32V25.84C97 25.29 97.45 24.84 98 24.84H114Z" fill="#41C7A1"/>
<path d="M102.5 30C102.24 30 101.98 29.89 101.79 29.71C101.61 29.52 101.5 29.26 101.5 29C101.5 28.74 101.61 28.48 101.79 28.29C102.07 28.01 102.51 27.92 102.88 28.08C103.01 28.13 103.12 28.2 103.21 28.29C103.39 28.48 103.5 28.74 103.5 29C103.5 29.26 103.39 29.52 103.21 29.71C103.02 29.89 102.76 30 102.5 30Z" fill="#41C7A1"/>
<path d="M106 30C105.74 30 105.48 29.89 105.29 29.71C105.11 29.52 105 29.26 105 29C105 28.74 105.11 28.48 105.29 28.29C105.38 28.2 105.49 28.13 105.62 28.08C105.99 27.92 106.43 28.01 106.71 28.29C106.89 28.48 107 28.74 107 29C107 29.26 106.89 29.52 106.71 29.71C106.66 29.75 106.61 29.79 106.56 29.83C106.5 29.87 106.44 29.9 106.38 29.92C106.32 29.95 106.26 29.97 106.2 29.98C106.13 29.99 106.07 30 106 30Z" fill="#41C7A1"/>
<path d="M109.5 30C109.24 30 108.98 29.89 108.79 29.71C108.61 29.52 108.5 29.26 108.5 29C108.5 28.74 108.61 28.48 108.79 28.29C108.89 28.2 108.99 28.13 109.12 28.08C109.3 28 109.5 27.98 109.7 28.02C109.76 28.03 109.82 28.05 109.88 28.08C109.94 28.1 110 28.13 110.06 28.17C110.11 28.21 110.16 28.25 110.21 28.29C110.39 28.48 110.5 28.74 110.5 29C110.5 29.26 110.39 29.52 110.21 29.71C110.16 29.75 110.11 29.79 110.06 29.83C110 29.87 109.94 29.9 109.88 29.92C109.82 29.95 109.76 29.97 109.7 29.98C109.63 29.99 109.56 30 109.5 30Z" fill="#41C7A1"/>
<path d="M102.5 33.5C102.37 33.5 102.24 33.47 102.12 33.42C101.99 33.37 101.89 33.3 101.79 33.21C101.61 33.02 101.5 32.76 101.5 32.5C101.5 32.24 101.61 31.98 101.79 31.79C101.89 31.7 101.99 31.63 102.12 31.58C102.3 31.5 102.5 31.48 102.7 31.52C102.76 31.53 102.82 31.55 102.88 31.58C102.94 31.6 103 31.63 103.06 31.67C103.11 31.71 103.16 31.75 103.21 31.79C103.39 31.98 103.5 32.24 103.5 32.5C103.5 32.76 103.39 33.02 103.21 33.21C103.16 33.25 103.11 33.3 103.06 33.33C103 33.37 102.94 33.4 102.88 33.42C102.82 33.45 102.76 33.47 102.7 33.48C102.63 33.49 102.57 33.5 102.5 33.5Z" fill="#41C7A1"/>
<path d="M106 33.5C105.74 33.5 105.48 33.39 105.29 33.21C105.11 33.02 105 32.76 105 32.5C105 32.24 105.11 31.98 105.29 31.79C105.66 31.42 106.34 31.42 106.71 31.79C106.89 31.98 107 32.24 107 32.5C107 32.76 106.89 33.02 106.71 33.21C106.52 33.39 106.26 33.5 106 33.5Z" fill="#41C7A1"/>
<path d="M109.5 33.5C109.24 33.5 108.98 33.39 108.79 33.21C108.61 33.02 108.5 32.76 108.5 32.5C108.5 32.24 108.61 31.98 108.79 31.79C109.16 31.42 109.84 31.42 110.21 31.79C110.39 31.98 110.5 32.24 110.5 32.5C110.5 32.76 110.39 33.02 110.21 33.21C110.02 33.39 109.76 33.5 109.5 33.5Z" fill="#41C7A1"/>
<path opacity="0.4" d="M263.5 25.19H260.61C258.24 25.19 256.31 23.26 256.31 20.89V18C256.31 17.45 255.86 17 255.31 17H251.07C247.99 17 245.5 19 245.5 22.57V31.43C245.5 35 247.99 37 251.07 37H258.93C262.01 37 264.5 35 264.5 31.43V26.19C264.5 25.64 264.05 25.19 263.5 25.19Z" fill="#41C7A1"/>
<path d="M258.8 17.21C258.39 16.8 257.68 17.08 257.68 17.65V21.14C257.68 22.6 258.92 23.81 260.43 23.81C261.38 23.82 262.7 23.82 263.83 23.82C264.4 23.82 264.7 23.15 264.3 22.75C262.86 21.3 260.28 18.69 258.8 17.21Z" fill="#41C7A1"/>
<path d="M256.5 28.75H250.5C250.09 28.75 249.75 28.41 249.75 28C249.75 27.59 250.09 27.25 250.5 27.25H256.5C256.91 27.25 257.25 27.59 257.25 28C257.25 28.41 256.91 28.75 256.5 28.75Z" fill="#41C7A1"/>
<path d="M254.5 32.75H250.5C250.09 32.75 249.75 32.41 249.75 32C249.75 31.59 250.09 31.25 250.5 31.25H254.5C254.91 31.25 255.25 31.59 255.25 32C255.25 32.41 254.91 32.75 254.5 32.75Z" fill="#41C7A1"/>
<path opacity="0.4" d="M327 17C324.38 17 322.25 19.13 322.25 21.75C322.25 24.32 324.26 26.4 326.88 26.49C326.96 26.48 327.04 26.48 327.1 26.49C327.12 26.49 327.13 26.49 327.15 26.49C327.16 26.49 327.16 26.49 327.17 26.49C329.73 26.4 331.74 24.32 331.75 21.75C331.75 19.13 329.62 17 327 17Z" fill="#41C7A1"/>
<path d="M332.08 29.15C329.29 27.29 324.74 27.29 321.93 29.15C320.66 30 319.96 31.15 319.96 32.38C319.96 33.61 320.66 34.75 321.92 35.59C323.32 36.53 325.16 37 327 37C328.84 37 330.68 36.53 332.08 35.59C333.34 34.74 334.04 33.6 334.04 32.36C334.03 31.13 333.34 29.99 332.08 29.15Z" fill="#41C7A1"/>
<path opacity="0.4" d="M337.99 22.34C338.15 24.28 336.77 25.98 334.86 26.21C334.85 26.21 334.85 26.21 334.84 26.21H334.81C334.75 26.21 334.69 26.21 334.64 26.23C333.67 26.28 332.78 25.97 332.11 25.4C333.14 24.48 333.73 23.1 333.61 21.6C333.54 20.79 333.26 20.05 332.84 19.42C333.22 19.23 333.66 19.11 334.11 19.07C336.07 18.9 337.82 20.36 337.99 22.34Z" fill="#41C7A1"/>
<path d="M339.99 31.59C339.91 32.56 339.29 33.4 338.25 33.97C337.25 34.52 335.99 34.78 334.74 34.75C335.46 34.1 335.88 33.29 335.96 32.43C336.06 31.19 335.47 30 334.29 29.05C333.62 28.52 332.84 28.1 331.99 27.79C334.2 27.15 336.98 27.58 338.69 28.96C339.61 29.7 340.08 30.63 339.99 31.59Z" fill="#41C7A1"/>
<path d="M35 19H53C53.2652 19 53.5196 19.1054 53.7071 19.2929C53.8946 19.4804 54 19.7348 54 20V36C54 36.2652 53.8946 36.5196 53.7071 36.7071C53.5196 36.8946 53.2652 37 53 37H35C34.7348 37 34.4804 36.8946 34.2929 36.7071C34.1054 36.5196 34 36.2652 34 36V20C34 19.7348 34.1054 19.4804 34.2929 19.2929C34.4804 19.1054 34.7348 19 35 19ZM39 29V33H41V29H39ZM43 23V33H45V23H43ZM47 26V33H49V26H47Z" fill="#41C7A1"/>
<path d="M35 19H53C53.2652 19 53.5196 19.1054 53.7071 19.2929C53.8946 19.4804 54 19.7348 54 20V36C54 36.2652 53.8946 36.5196 53.7071 36.7071C53.5196 36.8946 53.2652 37 53 37H35C34.7348 37 34.4804 36.8946 34.2929 36.7071C34.1054 36.5196 34 36.2652 34 36V20C34 19.7348 34.1054 19.4804 34.2929 19.2929C34.4804 19.1054 34.7348 19 35 19ZM39 29V33H41V29H39ZM43 23V33H45V23H43ZM47 26V33H49V26H47Z" fill="black" fill-opacity="0.2"/>
</svg>
