<svg width="47" height="47" viewBox="0 0 47 47" fill="none" xmlns="http://www.w3.org/2000/svg">
<ellipse cx="22.6473" cy="23.5" rx="22.6473" ry="23.5" fill="#C4C4C4"/>
<path d="M22.8739 28.67C26.5741 28.67 29.5738 25.6013 29.5738 21.8158C29.5738 18.0304 26.5741 14.9617 22.8739 14.9617C19.1737 14.9617 16.1741 18.0304 16.1741 21.8158C16.1741 25.6013 19.1737 28.67 22.8739 28.67Z" fill="white"/>
<path d="M22.8737 32.0971C16.1604 32.0971 10.6934 36.7031 10.6934 42.3783C10.6934 42.7622 10.722 43.71 11.0972 43.71L12.456 44.65L13.8149 45.12L15.4002 45.825L16.9855 46.295L20.1561 47H23.3268H25.1386L27.1768 46.53L31.0269 45.59C34.424 43.945 35.5563 42.77 35.5563 42.77C35.5563 37.0947 29.5869 32.0971 22.8737 32.0971Z" fill="white"/>
</svg>
