<svg width="20" height="20" viewBox="0 0 20 20" fill="none" xmlns="http://www.w3.org/2000/svg">
<path d="M0 11.1111H6V20H0V11.1111ZM14 5.55556H20V20H14V5.55556ZM7 0H13V20H7V0ZM2 13.3333V17.7778H4V13.3333H2ZM9 2.22222V17.7778H11V2.22222H9ZM16 7.77778V17.7778H18V7.77778H16Z" fill="#5A697C"/>
<path d="M0 11.1111H6V20H0V11.1111ZM14 5.55556H20V20H14V5.55556ZM7 0H13V20H7V0ZM2 13.3333V17.7778H4V13.3333H2ZM9 2.22222V17.7778H11V2.22222H9ZM16 7.77778V17.7778H18V7.77778H16Z" fill="black" fill-opacity="0.2"/>
</svg>
