<svg width="17" height="17" viewBox="0 0 17 17" fill="none" xmlns="http://www.w3.org/2000/svg">
<path d="M4.40918 15.6867L9.40541e-06 16.6667L0.980009 12.2575C0.334619 11.0503 -0.00205154 9.7022 9.40541e-06 8.33333C9.40541e-06 3.73083 3.73084 0 8.33334 0C12.9358 0 16.6667 3.73083 16.6667 8.33333C16.6667 12.9358 12.9358 16.6667 8.33334 16.6667C6.96447 16.6687 5.61636 16.3321 4.40918 15.6867ZM4.65084 13.9258L5.19501 14.2175C6.16047 14.7334 7.23867 15.0023 8.33334 15C9.65189 15 10.9408 14.609 12.0371 13.8765C13.1335 13.1439 13.988 12.1027 14.4925 10.8846C14.9971 9.66638 15.1291 8.32594 14.8719 7.03273C14.6147 5.73952 13.9797 4.55164 13.0474 3.61929C12.115 2.68694 10.9272 2.052 9.63394 1.79476C8.34074 1.53753 7.00029 1.66955 5.78212 2.17414C4.56395 2.67872 3.52275 3.5332 2.79021 4.62953C2.05767 5.72586 1.66668 7.01479 1.66668 8.33333C1.66668 9.445 1.93751 10.515 2.45001 11.4717L2.74084 12.0158L2.19501 14.4717L4.65084 13.9258Z" fill="#324054"/>
<path d="M4.40918 15.6867L9.40541e-06 16.6667L0.980009 12.2575C0.334619 11.0503 -0.00205154 9.7022 9.40541e-06 8.33333C9.40541e-06 3.73083 3.73084 0 8.33334 0C12.9358 0 16.6667 3.73083 16.6667 8.33333C16.6667 12.9358 12.9358 16.6667 8.33334 16.6667C6.96447 16.6687 5.61636 16.3321 4.40918 15.6867ZM4.65084 13.9258L5.19501 14.2175C6.16047 14.7334 7.23867 15.0023 8.33334 15C9.65189 15 10.9408 14.609 12.0371 13.8765C13.1335 13.1439 13.988 12.1027 14.4925 10.8846C14.9971 9.66638 15.1291 8.32594 14.8719 7.03273C14.6147 5.73952 13.9797 4.55164 13.0474 3.61929C12.115 2.68694 10.9272 2.052 9.63394 1.79476C8.34074 1.53753 7.00029 1.66955 5.78212 2.17414C4.56395 2.67872 3.52275 3.5332 2.79021 4.62953C2.05767 5.72586 1.66668 7.01479 1.66668 8.33333C1.66668 9.445 1.93751 10.515 2.45001 11.4717L2.74084 12.0158L2.19501 14.4717L4.65084 13.9258Z" fill="black" fill-opacity="0.2"/>
</svg>
